<?xml version="1.0" standalone="no"?>
<!DOCTYPE svg PUBLIC "-//W3C//DTD SVG 1.1//EN" "http://www.w3.org/Graphics/SVG/1.1/DTD/svg11.dtd">
<svg xmlns="http://www.w3.org/2000/svg">
<defs >
<font id="Podkova" horiz-adv-x="1069" ><font-face
    font-family="Podkova"
    units-per-em="2048"
    panose-1="2 0 5 3 0 0 0 2 0 4"
    ascent="1760"
    descent="-563"
    alphabetic="0" />
<glyph unicode=" " glyph-name="space" horiz-adv-x="515" />
<glyph unicode="!" glyph-name="exclam" horiz-adv-x="506" d="M311 381H192L174 1206H336L311 381ZM379 96Q379 70 369 47T341 7T300 -21T252 -31Q226 -31 203 -21T162 6T135 47T125 96Q125 121 135 144T162 185T202 212T252 223Q277 223 300 213T340 185T368
145T379 96Z" />
<glyph unicode="&quot;" glyph-name="quotedbl" horiz-adv-x="705" d="M125 1206H289L250 825H164L125 1206ZM416 1206H580L541 825H455L416 1206Z" />
<glyph unicode="#" glyph-name="numbersign" horiz-adv-x="1347" d="M147 805H481L593 1206H722L612 805H886L999 1206H1128L1017 805H1269V694H986L894 362H1199V252H864L757 -137H626L732 252H458L352 -137H220L327 252H77V362H358L450 694H147V805ZM489 362H763L855
694H581L489 362Z" />
<glyph unicode="$" glyph-name="dollar" horiz-adv-x="978" d="M551 1335V1153Q618 1148 668 1137T751 1114T801 1093T823 1083H825L856 854L733 842L708 993Q682 1004 643 1014T551 1030V659L598 653Q676 642 729 614T816 546T865 456T880 348Q880 260 858 196T793
90T689 26T549 0V-170H418V2Q356 8 303 21T210 47T149 71T125 82L90 295L217 309L239 166Q278 152 324 140T418 121V526Q339 536 283 566T190 638T136 733T119 840Q119 900 133 952T183 1046T275 1115T418 1151V1335H551ZM737 328Q737 358 729 388T699 444T642
487T549 508V121Q635 135 686 184T737 328ZM248 862Q248 828 258 798T289 743T338 703T403 682L418 680V1030Q327 1018 288 975T248 862Z" />
<glyph unicode="%" glyph-name="percent" horiz-adv-x="1497" d="M512 -43H360L959 1237H1108L512 -43ZM209 877Q209 808 220 765T250 697T294 663T348 653Q376 653 401 662T446 696T476 764T487 877Q487 946 476 990T446 1058T402 1092T348 1102Q319 1102 294
1093T250 1059T220 990T209 877ZM621 877Q621 777 601 709T545 598T459 537T348 518Q288 518 238 536T152 597T96 708T76 877Q76 977 96 1046T152 1157T238 1218T348 1237Q409 1237 459 1219T545 1158T601 1046T621 877ZM1008 326Q1008 257 1019 214T1049 146T1093
112T1147 102Q1175 102 1200 111T1245 145T1275 213T1286 326Q1286 395 1275 439T1245 507T1201 541T1147 551Q1118 551 1093 542T1049 508T1019 439T1008 326ZM1419 326Q1419 226 1400 158T1344 47T1258 -14T1147 -33Q1087 -33 1037 -15T951 46T895 157T875 326Q875
426 895 495T951 606T1037 667T1147 686Q1208 686 1258 668T1344 607T1399 495T1419 326Z" />
<glyph unicode="&amp;" glyph-name="ampersand" horiz-adv-x="1408" d="M1306 723L1161 674Q1138 593 1108 495T1028 301Q1128 224 1206 169T1331 84L1263 -31Q1263 -30 1240 -15T1177 29T1081 98T960 188Q925 141 881 101T781 32T660 -14T512 -31Q477 -31 433
-25T342 -3T251 39T171 106T115 203T94 334Q94 410 120 468T189 572T285 654T395 723Q341 795 310 862T278 991Q278 1042 290 1080T322 1146T368 1191T424 1219T483 1233T540 1237Q594 1237 641 1224T725 1182T781 1113T802 1014Q802 961 784 918T735 838T664 769T579
707Q650 623 740 541T927 381Q971 474 997 575T1044 772L1267 844L1306 723ZM466 631Q423 602 385 571T317 503T270 426T253 334Q253 282 269 244T310 179T365 135T425 107T479 94T518 90Q634 90 717 139T860 268Q756 350 654 442T466 631ZM659 997Q659 1063 633
1093T542 1124Q479 1124 454 1089T428 993Q428 948 449 898T512 793Q543 814 570 835T616 881T647 934T659 997Z" />
<glyph unicode="&apos;" glyph-name="quotesingle" horiz-adv-x="416" d="M126 1206H290L251 825H165L126 1206Z" />
<glyph unicode="(" glyph-name="parenleft" horiz-adv-x="582" d="M256 539Q256 483 265 400T302 222T384 29T524 -156L446 -256Q379 -213 316 -134T203 50T123 279T92 539Q92 674 122 799T202 1029T315 1213T446 1335L524 1235Q466 1178 424 1115T351 987T303
858T274 736T260 627T256 539Z" />
<glyph unicode=")" glyph-name="parenright" horiz-adv-x="582" d="M326 539Q326 577 323 627T309 735T280 858T231 986T159 1114T58 1235L136 1335Q203 1292 266 1213T379 1029T459 799T490 539Q490 404 460 280T380 50T267 -134T136 -256L58 -156Q145 -70 198
28T279 221T317 399T326 539Z" />
<glyph unicode="*" glyph-name="asterisk" horiz-adv-x="965" d="M540 1036L825 1147L876 999L579 920L767 688L642 594L481 844L319 594L190 684L384 922L96 997L143 1147L417 1038L401 1335H556L540 1036Z" />
<glyph unicode="+" glyph-name="plus" horiz-adv-x="952" d="M95 692H398V1001H552V692H857V551H552V240H398V551H95V692Z" />
<glyph unicode="," glyph-name="comma" horiz-adv-x="527" d="M401 84Q401 54 394 24T374 -34T345 -90T301 -156T221 -248L149 -186Q166 -160 184 -132Q198 -108 214 -80T243 -23Q225 -21 206 -15T170 6T141 44T129 96Q129 124 139 147T167 188T209 214T262 223Q289
223 314 212T359 182T389 138T401 84Z" />
<glyph unicode="-" glyph-name="hyphen" horiz-adv-x="903" d="M138 545H765V403H138V545Z" />
<glyph unicode="." glyph-name="period" horiz-adv-x="507" d="M381 96Q381 70 371 47T343 7T302 -21T254 -31Q228 -31 205 -21T164 6T137 47T127 96Q127 121 137 144T164 185T204 212T254 223Q279 223 302 213T342 185T370 145T381 96Z" />
<glyph unicode="/" glyph-name="slash" horiz-adv-x="923" d="M202 -268H51L722 1206H872L202 -268Z" />
<glyph unicode="0" glyph-name="zero" horiz-adv-x="1202" d="M296 602Q296 452 320 356T385 205T482 130T603 109Q667 109 722 129T819 205T884 356T908 602Q908 754 884 850T819 1002T723 1077T603 1098Q538 1098 482 1078T385 1002T320 851T296 602ZM1084 602Q1084
425 1049 304T950 109T797 2T601 -31Q494 -31 406 1T253 108T154 304T119 602Q119 780 154 901T253 1097T405 1204T601 1237Q708 1237 797 1205T949 1098T1048 902T1084 602Z" />
<glyph unicode="1" glyph-name="one" horiz-adv-x="968" d="M80 836L522 1206H624L620 141H940V0H121V141H461L463 967L170 725L80 836Z" />
<glyph unicode="2" glyph-name="two" horiz-adv-x="1089" d="M805 141L911 311L1028 250L876 0H118L84 90Q102 168 139 230T226 344T333 437T448 519T558 596T652 677T717 768T743 879Q744 916 731 954T688 1025T609 1077T489 1098Q426 1098 376 1079T291 1036Q250
1009 219 975L102 1085Q102 1085 112 1096T143 1124T196 1161T271 1197T368 1225T487 1237Q587 1237 666 1210T801 1135T887 1022T917 879Q917 811 893 754T830 649T738 558T631 476T520 398T417 320T334 236T284 141H805Z" />
<glyph unicode="3" glyph-name="three" horiz-adv-x="1059" d="M176 227Q177 227 200 209T266 169T369 129T503 111Q569 111 619 128T702 175T753 245T770 330Q770 387 754 426T712 489T652 526T583 544T515 550T456 551H362V692H501Q556 692 600 702T676 736T724
798T741 891Q741 952 717 991T656 1054T575 1086T489 1096Q427 1097 379 1080T297 1043T246 1004T227 985L106 1096Q106 1096 116 1107T148 1133T200 1167T275 1200T372 1226T493 1237Q586 1237 663 1213T797 1143T884 1033T915 891Q915 836 897 793T849 718T785
665T716 633Q756 625 796 602T870 540T923 450T944 332Q944 264 920 199T842 82T704 0T497 -31Q392 -31 313 -9T180 40Q117 71 71 111L176 227Z" />
<glyph unicode="4" glyph-name="four" horiz-adv-x="1083" d="M806 338V141H992V0H429V141H644V338H52L50 414L439 1274L574 1198Q395 826 329 689T246 515T228 477H644V1028H808L806 477L1000 479V338H806Z" />
<glyph unicode="5" glyph-name="five" horiz-adv-x="1027" d="M862 1206V1063H319V737Q353 762 402 779T518 797Q594 797 653 780T759 734T837 667T889 587T918 500T928 416Q928 324 900 243T816 100T675 4T479 -31Q389 -31 320 -12T203 31Q147 58 104 94L203
207Q204 207 223 192T279 158T367 125T485 109Q537 109 585 124T671 176T731 270T754 414Q754 481 734 527T680 603T605 644T518 657Q449 657 400 643T317 611T268 578T248 559V557L154 602V1206H862Z" />
<glyph unicode="6" glyph-name="six" horiz-adv-x="1126" d="M660 1098Q589 1098 535 1077T440 1020T372 935T327 833T302 721T292 608Q312 635 344 661T418 709T511 743T619 756Q697 756 770 738T901 675T994 554T1029 362Q1029 326 1021 283T994 197T942 112T860
39T742 -12T584 -31Q465 -31 377 11T230 134T142 332T113 600Q113 732 151 848T260 1050T431 1187T656 1237Q725 1237 782 1222T882 1190Q931 1169 971 1143L896 1024Q895 1023 873 1034T816 1060T740 1086T660 1098ZM619 616Q562 616 512 607T419 578T346 532T296
471Q305 353 334 282T405 172T497 122T599 109Q666 109 715 132T796 191T845 273T861 362Q861 482 802 549T619 616Z" />
<glyph unicode="7" glyph-name="seven" horiz-adv-x="937" d="M40 969L85 1206H919V1118Q806 973 729 821T604 523T532 243T501 0H309Q323 115 355 241T439 503T565 779T739 1065H210L182 938L40 969Z" />
<glyph unicode="8" glyph-name="eight" horiz-adv-x="1088" d="M542 1237Q626 1237 700 1215T829 1148T916 1040T948 891Q948 848 935 806T895 727T830 663T743 623Q792 615 833 589T905 524T953 437T970 334Q970 242 935 174T841 60T705 -8T544 -31Q460 -31 383
-9T247 60T153 174T118 334Q118 388 135 436T182 524T255 589T346 623Q297 636 259 663T195 726T155 805T141 891Q141 975 173 1039T259 1148T387 1214T542 1237ZM544 109Q599 109 645 125T724 172T775 243T794 334Q794 380 779 420T732 489T654 536T544 553Q481
553 434 536T356 490T310 420T294 334Q294 285 312 244T364 172T443 126T544 109ZM544 684Q599 684 641 699T713 743T758 808T774 891Q774 935 759 973T714 1038T642 1082T544 1098Q490 1098 447 1082T375 1039T331 973T315 891Q315 846 330 809T375 743T447 700T544
684Z" />
<glyph unicode="9" glyph-name="nine" horiz-adv-x="1132" d="M504 109Q571 109 621 127T707 177T766 252T805 344T826 445T836 549Q815 521 783 494T710 444T618 407T510 393Q432 393 359 413T228 482T136 616T101 829Q101 867 109 912T136 1002T188 1090T270
1165T387 1217T545 1237Q664 1237 752 1196T899 1074T987 878T1016 610Q1016 479 992 380T928 210T835 93T724 19T605 -20T490 -31Q415 -31 354 -17T249 16Q198 36 158 63L234 182Q235 183 258 172T318 146T404 121T504 109ZM510 532Q639 532 720 580T836 705Q829
834 800 911T729 1030T636 1085T531 1098Q464 1098 415 1075T334 1012T285 919T269 805Q269 749 283 700T328 613T403 554T510 532Z" />
<glyph unicode=":" glyph-name="colon" horiz-adv-x="531" d="M393 96Q393 70 383 47T355 7T314 -21T266 -31Q240 -31 217 -21T176 6T149 47T139 96Q139 121 149 144T176 185T216 212T266 223Q291 223 314 213T354 185T382 145T393 96ZM393 782Q393 756 383 733T355
693T314 665T266 655Q240 655 217 665T176 692T149 733T139 782Q139 807 149 830T176 871T216 898T266 909Q291 909 314 899T354 871T382 831T393 782Z" />
<glyph unicode=";" glyph-name="semicolon" horiz-adv-x="554" d="M398 782Q398 756 388 733T360 693T319 665T271 655Q245 655 222 665T181 692T154 733T144 782Q144 807 154 830T181 871T221 898T271 909Q296 909 319 899T359 871T387 831T398 782ZM416 84Q416
54 409 24T389 -34T360 -90T327 -141Q287 -196 236 -248L164 -186Q181 -160 199 -132Q213 -108 229 -80T258 -23Q240 -21 221 -15T187 4Q167 21 156 44T144 96Q144 124 154 147T182 188T224 214T277 223Q304 223 329 212T374 182T404 138T416 84Z" />
<glyph unicode="&lt;" glyph-name="less" horiz-adv-x="1066" d="M886 144L67 583V708L865 1103L931 972L267 644V632L951 275L886 144Z" />
<glyph unicode="=" glyph-name="equal" horiz-adv-x="1054" d="M147 852H907V711H147V852ZM147 528H907V387H147V528Z" />
<glyph unicode="&gt;" glyph-name="greater" horiz-adv-x="1060" d="M134 274L792 631V643L114 971L179 1102L992 707V582L200 143L134 274Z" />
<glyph unicode="?" glyph-name="question" horiz-adv-x="881" d="M68 905L102 1157Q133 1178 181 1196Q222 1210 285 1222T438 1235Q541 1235 613 1206T730 1135T795 1043T815 954Q815 904 801 863T757 786T684 718T582 655Q551 638 523 625T472 597T436 566T422
528Q422 508 431 492T454 464T484 442T512 426L432 317Q431 318 419 324T388 342T348 372T308 414T278 471T266 543Q266 592 288 628T342 691T405 734T459 764Q558 817 583 838T625 887T641 956Q641 977 630 1002T593 1048T530 1083T436 1098Q362 1098 312 1088T229
1063L203 891L68 905ZM551 96Q551 70 541 47T513 7T473 -21T424 -31Q398 -31 375 -21T334 6T307 47T297 96Q297 121 307 144T334 185T374 212T424 223Q449 223 472 213T513 185T540 145T551 96Z" />
<glyph unicode="@" glyph-name="at" horiz-adv-x="1467" d="M1010 231Q1020 213 1043 199T1098 184Q1123 184 1148 197T1193 241T1227 326T1240 461Q1240 519 1229 579T1195 695T1134 800T1042 887T917 945T756 967Q652 967 562 931T406 826T301 659T263 436Q263
283 303 182T409 21T563 -65T744 -90Q792 -90 838 -80T920 -58Q962 -44 1000 -25L1068 -123Q1030 -150 981 -170Q939 -188 878 -202T740 -217Q579 -217 460 -167T261 -29T144 178T105 436Q105 507 121 583T170 732T256 871T380 986T546 1065T756 1094Q913 1094
1031 1041T1229 899T1347 697T1387 463Q1387 368 1362 294T1295 168T1202 90T1094 63Q1046 63 1001 85T918 156Q900 133 874 115Q852 99 819 87T740 74Q686 74 634 92T540 151T474 256T449 412Q449 503 475 567T546 671T651 729T779 748Q825 748 867 737T943 710T1010
674V231ZM752 195Q789 195 814 204T854 226T879 254V602Q865 609 850 614T815 623T775 627Q688 627 647 576T605 410Q605 354 617 313T649 246T696 208T752 195Z" />
<glyph unicode="A" glyph-name="A" horiz-adv-x="1326" d="M1304 0H806V141H935L871 328H429L359 141H489V0H13V141H208L548 1065H341V1206H740L1109 141H1304V0ZM480 469H822L659 999L480 469Z" />
<glyph unicode="B" glyph-name="B" horiz-adv-x="1231" d="M457 1065V672H713Q734 672 765 680T826 712T876 778T897 889Q897 956 876 991T820 1043T739 1062T643 1065H457ZM457 549L455 143H698Q811 143 873 195T936 356Q936 453 879 501T711 549H457ZM620 1206Q736
1206 821 1189T961 1135T1044 1037T1071 891Q1071 848 1058 807T1024 731T977 668T926 623Q967 607 1001 579T1059 516T1096 439T1110 356Q1110 281 1090 216T1025 103T912 28T747 0H98V141H293V1065H98V1206H620Z" />
<glyph unicode="C" glyph-name="C" horiz-adv-x="1216" d="M1109 283L1058 45Q1014 24 958 7Q910 -7 843 -19T692 -31Q560 -31 453 13T270 140T153 340T110 604Q109 748 150 865T267 1065T450 1193T690 1237Q791 1236 862 1222T979 1189T1046 1157T1068 1141L1113
903L972 872L931 1049Q900 1066 842 1082T692 1098Q593 1098 517 1064T390 965T311 810T284 604Q284 487 311 396T391 240T519 143T692 109Q768 109 830 123T931 152L970 315L1109 283Z" />
<glyph unicode="D" glyph-name="D" horiz-adv-x="1377" d="M643 1206Q781 1206 895 1176T1091 1073T1218 882T1263 584Q1263 449 1217 341T1089 157T897 41T659 0H98V141H293V1065H98V1206H643ZM457 141H622Q854 141 971 253T1089 584Q1089 732 1060 825T974 972T834
1045T643 1065H457V141Z" />
<glyph unicode="E" glyph-name="E" horiz-adv-x="1240" d="M1154 315L1048 0H97V141H292L294 1065H99V1206H1007L1113 891L978 846L896 1065H458V694H841V553H458L456 141H937L1019 360L1154 315Z" />
<glyph unicode="F" glyph-name="F" horiz-adv-x="1143" d="M976 846L894 1065H456V682H794V541H454V141H704V0H97V141H292L294 1065H99V1206H1005L1111 891L976 846Z" />
<glyph unicode="G" glyph-name="G" horiz-adv-x="1249" d="M694 594H1109V129Q1109 128 1082 103T998 48T856 -6T657 -31Q553 -31 455 7T280 125T157 323T110 604Q110 750 151 867T265 1066T438 1193T655 1237Q757 1237 834 1222T966 1189Q1028 1168 1074 1141L1120
903L978 872L937 1047Q920 1054 895 1063T836 1080T757 1093T657 1098Q568 1098 499 1066T382 970T309 815T284 604Q284 470 313 376T392 222T511 136T657 109Q722 109 777 121T871 148T933 175T956 190V453H694V594Z" />
<glyph unicode="H" glyph-name="H" horiz-adv-x="1502" d="M915 141H1046V547H456L454 141H585V0H97V141H292L294 1065H99V1206H589V1065H458L456 688H1046L1048 1065H917V1206H1406V1065H1212L1207 141H1402V0H915V141Z" />
<glyph unicode="I" glyph-name="I" horiz-adv-x="750" d="M99 1206H652V1065H460L456 141H652V0H97V141H294V1065H99V1206Z" />
<glyph unicode="J" glyph-name="J" horiz-adv-x="985" d="M339 1206H925V1065H733L729 504Q727 404 724 326T704 188Q688 132 654 91T573 23T472 -17T358 -31Q297 -31 248 -19T165 9T112 37T92 51L40 289L180 322L223 139Q222 140 232 136T259 126T300 115T350
109Q377 108 407 114T465 134T513 170T546 225Q563 273 565 342T567 508L569 1065H339V1206Z" />
<glyph unicode="K" glyph-name="K" horiz-adv-x="1369" d="M774 141H922L658 539H453L455 141H584V0H98V141H291V1065H98V1206H584V1065H453V680H633L916 1065H774V1206H1278V1065H1092L782 645L1120 141H1325V0H774V141Z" />
<glyph unicode="L" glyph-name="L" horiz-adv-x="1128" d="M1093 313L986 0H97V141H329V1065H95V1206H726V1065H491V141H878L958 358L1093 313Z" />
<glyph unicode="M" glyph-name="M" horiz-adv-x="1774" d="M800 145L538 803L444 1065L439 141H573V0H95V141H290L292 1065H102V1206H556L900 328L1240 1206H1676V1065H1482V141H1676V0H1187V141H1318V1065L1227 799L977 145H800Z" />
<glyph unicode="N" glyph-name="N" horiz-adv-x="1507" d="M902 1206H1435V1065H1238V0H1037L454 1065L458 141H630V0H97V141H292L290 1065H99V1206H550L1074 250V1065H902V1206Z" />
<glyph unicode="O" glyph-name="O" horiz-adv-x="1342" d="M671 1098Q573 1098 501 1065T380 968T308 813T284 604Q284 487 308 396T380 240T500 143T671 109Q768 109 841 142T962 240T1034 395T1058 604Q1058 721 1034 812T962 967T841 1064T671 1098ZM671 -31Q546
-31 443 13T266 140T151 340T110 604Q110 750 150 867T265 1066T441 1193T669 1237Q795 1237 898 1193T1076 1067T1191 867T1232 604Q1232 458 1192 341T1078 141T901 14T671 -31Z" />
<glyph unicode="P" glyph-name="P" horiz-adv-x="1165" d="M639 590Q706 590 758 599T846 633T899 705T918 828Q918 903 900 949T846 1021T759 1056T639 1065H455V590H639ZM453 446V141H698V0H98V141H289V1065H98V1206H641Q766 1206 852 1182T991 1111T1068 993T1092
829Q1092 736 1069 665T992 545T852 471T641 446H453Z" />
<glyph unicode="Q" glyph-name="Q" horiz-adv-x="1344" d="M671 -31Q546 -31 443 13T266 140T151 340T110 604Q110 750 150 867T265 1066T441 1193T669 1237Q795 1237 898 1193T1076 1067T1191 867T1232 604Q1232 455 1190 337T1070 135L1343 -27L1234 -162L978
55Q913 13 836 -9T671 -31ZM671 1098Q573 1098 501 1065T380 968T308 813T284 604Q284 487 308 396T380 240T500 143T671 109Q768 109 841 142T962 240T1034 395T1058 604Q1058 721 1034 812T962 967T841 1064T671 1098Z" />
<glyph unicode="R" glyph-name="R" horiz-adv-x="1279" d="M1225 0H919L661 473H453V141H584V0H98V141H289V1065H98V1206H641Q766 1206 851 1185T987 1118T1061 1001T1083 829Q1083 763 1066 709T1016 612T937 540T835 494L1038 141H1225V0ZM455 616H646Q687 616
733 623T819 652T884 716T910 827Q910 908 893 955T841 1026T757 1058T640 1065H455V616Z" />
<glyph unicode="S" glyph-name="S" horiz-adv-x="1131" d="M858 330Q858 363 851 393T822 449T759 494T651 522L496 543Q400 555 332 586T219 664T154 773T133 911Q133 980 159 1040T238 1143T373 1212T565 1237Q640 1237 706 1229T823 1210T908 1187T954 1169L989
907L848 893L821 1065Q779 1080 717 1090T567 1100Q506 1100 457 1088T372 1053T317 995T297 915Q297 829 351 782T496 721L682 692Q784 677 850 647T954 574T1007 475T1022 352Q1022 249 989 177T897 58T756 -9T575 -31Q502 -31 439 -24T321 -5T223 21T143 49L104
298L245 320L273 158Q304 148 334 139T396 124T466 113T549 109Q613 109 669 120T767 158T833 226T858 330Z" />
<glyph unicode="T" glyph-name="T" horiz-adv-x="1196" d="M971 870V1065H682L678 141H872V0H319V141H514L516 1065H227V870H71V1206H1126V870H971Z" />
<glyph unicode="U" glyph-name="U" horiz-adv-x="1379" d="M680 109Q762 109 817 135T906 210T954 329T969 487V1065H838V1206H1329V1065H1133V481Q1133 375 1115 296T1064 159T989 65T895 7T790 -22T680 -31Q627 -31 575 -23T474 7T385 65T314 159T266 295T248
481V1065H51V1206H543V1065H412V467Q412 378 425 311T470 199T552 132T680 109Z" />
<glyph unicode="V" glyph-name="V" horiz-adv-x="1359" d="M8 1206H511V1065H380L590 504L699 182L795 487L993 1065H861V1206H1337V1065H1143L782 0H604L203 1065H8V1206Z" />
<glyph unicode="W" glyph-name="W" horiz-adv-x="1899" d="M12 1206H510V1065H379L551 485L640 186L703 475L870 1053H1051L1194 487L1260 188L1348 487L1538 1065H1407V1206H1876V1065H1682L1346 0H1157L1012 551L946 827L867 541L723 0H547L207 1065H12V1206Z" />
<glyph unicode="X" glyph-name="X" horiz-adv-x="1407" d="M65 1206H581V1065H450L708 739L950 1065H809V1206H1321V1065H1126L801 625L1184 141H1358V0H823V141H975L686 502L418 141H569V0H67V141H242L596 616L239 1065H65V1206Z" />
<glyph unicode="Y" glyph-name="Y" horiz-adv-x="1357" d="M22 1206H512V1065H403L692 705L967 1065H854V1206H1339V1065H1143L764 567L760 141H952V0H405V141H598L600 561L194 1065H22V1206Z" />
<glyph unicode="Z" glyph-name="Z" horiz-adv-x="1150" d="M124 885L182 1206H1019V1100L329 141H844L926 360L1061 315L954 0H121V115L805 1065H296L255 866L124 885Z" />
<glyph unicode="[" glyph-name="bracketleft" horiz-adv-x="596" d="M317 -125H528V-254H160V1335H528V1206H317V-125Z" />
<glyph unicode="\" glyph-name="backslash" horiz-adv-x="922" d="M51 1206H200L872 -268H720L51 1206Z" />
<glyph unicode="]" glyph-name="bracketright" horiz-adv-x="596" d="M278 1206H67V1335H436V-254H67V-125H278V1206Z" />
<glyph unicode="^" glyph-name="asciicircum" horiz-adv-x="1706" />
<glyph unicode="_" glyph-name="underscore" horiz-adv-x="1212" d="M136 -39H1076V-180H136V-39Z" />
<glyph unicode="`" glyph-name="grave" horiz-adv-x="686" d="M600 1049L563 983L86 1200L158 1335L600 1049Z" />
<glyph unicode="a" glyph-name="a" horiz-adv-x="1047" d="M142 666L175 852Q213 868 260 880Q300 891 354 900T472 909Q564 909 627 892T732 845T796 776T829 694T842 604T844 516V160L1039 96L998 -35L721 59Q669 24 597 -3T433 -31Q350 -31 285 -11T175 47T105
133T80 242Q79 313 105 364T178 447T287 495T420 510L685 508V524Q685 550 685 578T682 635T666 689T632 735T572 766T478 778Q413 778 366 770T293 754L273 641L142 666ZM441 100Q486 100 524 107T592 126T646 152T685 178V379L425 381Q390 381 358 377T300 358T259
317T244 244Q244 207 260 180T303 135T366 109T441 100Z" />
<glyph unicode="b" glyph-name="b" horiz-adv-x="1076" d="M-3 1329L308 1223V842Q356 868 415 888T544 909Q639 909 719 880T858 795T949 656T982 463Q982 353 950 262T858 106T717 5T536 -31Q447 -31 376 -14T254 26Q195 52 149 84V1135L-46 1202L-3 1329ZM534
100Q604 100 657 126T746 201T800 315T818 463Q818 618 750 698T542 778Q487 778 444 766T371 740Q336 723 308 702V152Q333 137 366 126Q395 116 437 108T534 100Z" />
<glyph unicode="c" glyph-name="c" horiz-adv-x="962" d="M733 610L707 752Q694 758 655 768T543 778Q401 778 330 690T258 440Q258 279 329 190T543 100Q600 100 650 113T738 144Q782 163 819 188L887 88Q887 87 860 69T785 28T675 -12T541 -31Q442 -31 360 1T219
94T127 242T94 440Q94 550 126 637T218 784T360 877T541 909Q613 909 665 901T752 884Q792 873 821 860L864 639L733 610Z" />
<glyph unicode="d" glyph-name="d" horiz-adv-x="1152" d="M1118 96L1077 -35L805 59Q780 41 751 25T688 -3T617 -23T539 -31Q440 -31 358 4T217 104T125 259T92 459Q92 558 126 640T221 783T363 876T539 909Q607 909 662 897T766 866V1135L572 1202L615 1329L926
1223V162L1118 96ZM541 778Q476 778 423 754T333 688T276 587T256 461Q256 380 274 314T327 200T416 126T541 100Q579 100 613 108T675 127T727 152T766 176V727Q741 741 708 752Q679 762 637 770T541 778Z" />
<glyph unicode="e" glyph-name="e" horiz-adv-x="1028" d="M541 -31Q442 -31 360 1T219 94T127 242T94 440Q94 550 126 637T218 784T360 877T541 909Q623 909 698 886T828 806T908 651T920 403L260 399Q268 256 339 178T543 100Q615 100 672 115T770 150Q818 172
854 201L928 104Q928 103 903 82T828 36T706 -10T541 -31ZM543 778Q421 778 351 713T262 526L780 528Q778 652 719 715T543 778Z" />
<glyph unicode="f" glyph-name="f" horiz-adv-x="750" d="M96 127H268V752H96V879H268V969Q268 1055 288 1119T353 1227T467 1293T635 1315Q702 1315 753 1304T839 1278Q879 1261 909 1241L848 1137Q825 1149 794 1160Q768 1169 731 1176T645 1184Q579 1184 537
1169T471 1122T437 1045T428 936V879H682V752H428V127H612V0H96V127Z" />
<glyph unicode="g" glyph-name="g" horiz-adv-x="1099" d="M856 770Q885 733 901 685T917 580Q917 491 883 427T793 322T662 262T508 242Q461 242 433 245Q416 246 403 248V55H633Q960 55 960 -182Q960 -257 924 -309T828 -395T688 -442T524 -457Q432 -457 354
-443T217 -410T124 -377T86 -358L143 -238Q194 -264 255 -283Q307 -300 376 -314T524 -328Q591 -328 644 -321T734 -297T791 -257T811 -197Q811 -169 801 -146T765 -106T697 -81T590 -72H256V299Q227 314 200 339T152 398T119 475T106 569Q106 648 135 711T216
818T343 885T510 909Q587 909 648 895T760 852L1050 961L1098 825L856 770ZM262 575Q262 520 282 479T337 411T417 370T512 356Q561 356 606 369T686 410T741 479T762 575Q762 686 695 740T512 795Q396 795 329 741T262 575Z" />
<glyph unicode="h" glyph-name="h" horiz-adv-x="1233" d="M72 1331L383 1225V823Q404 837 432 852T495 880T568 901T651 909Q749 909 818 888T932 823T997 714T1018 563V127H1190V0H766V127H858V530Q858 585 849 630T816 709T749 760T641 778Q585 778 538 767T456
743Q416 728 383 709V127H475V0H51V127H223V1137L29 1204L72 1331Z" />
<glyph unicode="i" glyph-name="i" horiz-adv-x="648" d="M95 879H425V127H595V0H95V127H265V752H95V879ZM457 1188Q457 1162 447 1139T419 1098T379 1071T330 1061Q304 1061 281 1071T241 1098T214 1138T204 1188Q204 1213 214 1236T241 1276T281 1304T330 1315Q355
1315 378 1305T419 1277T446 1236T457 1188Z" />
<glyph unicode="j" glyph-name="j" horiz-adv-x="543" d="M51 879H383V-63Q383 -106 381 -151T369 -240T335 -323T271 -392T166 -439T10 -457Q0 -457 -13 -456T-41 -454T-68 -451T-90 -449L-70 -324Q-50 -326 -30 -327T16 -328Q99 -328 141 -303T202 -241T221
-159T223 -76V752H51V879ZM418 1188Q418 1162 408 1139T380 1098T339 1071T291 1061Q265 1061 242 1071T201 1098T174 1138T164 1188Q164 1213 174 1236T201 1276T241 1304T291 1315Q316 1315 339 1305T379 1277T407 1236T418 1188Z" />
<glyph unicode="k" glyph-name="k" horiz-adv-x="1127" d="M1034 752H862L690 459H692L891 127H1067V0H795L563 383H383V127H475V0H51V127H223V1139L29 1206L72 1333L383 1227V510H569L711 752H604V879H1034V752Z" />
<glyph unicode="l" glyph-name="l" horiz-adv-x="606" d="M383 1260V127H555V0H51V127H223V1159L19 1204L53 1335L383 1260Z" />
<glyph unicode="m" glyph-name="m" horiz-adv-x="1820" d="M119 909L390 815Q403 825 427 841T486 872T566 898T666 909Q775 909 846 882T957 801L961 803Q995 832 1040 856Q1078 876 1131 892T1252 909Q1350 909 1417 888T1526 823T1586 714T1604 563V127H1776V0H1352V127H1444V530Q1444
585 1437 630T1409 709T1347 760T1241 778Q1185 778 1144 767T1074 743Q1041 728 1018 709V127H1110V0H766V127H858V530Q858 585 851 630T823 709T762 760T656 778Q600 778 559 767T489 743Q456 728 433 709V127H525V0H101V127H273V715L76 782L119 909Z" />
<glyph unicode="n" glyph-name="n" horiz-adv-x="1283" d="M119 909L391 815Q406 825 436 841T506 872T596 898T701 909Q799 909 868 888T982 823T1046 714T1067 563V127H1239V0H815V127H907V530Q907 585 898 630T865 709T798 760T690 778Q634 778 588 767T506
743Q466 728 432 709V127H524V0H100V127H273V715L76 782L119 909Z" />
<glyph unicode="o" glyph-name="o" horiz-adv-x="1089" d="M541 -31Q442 -31 360 1T219 93T127 241T94 438Q94 548 126 635T218 783T360 876T541 909Q643 909 727 877T870 784T963 636T996 438Q996 328 963 241T871 94T727 1T541 -31ZM543 778Q401 778 330 689T258
438Q258 277 329 189T543 100Q688 100 760 188T832 438Q832 599 760 688T543 778Z" />
<glyph unicode="p" glyph-name="p" horiz-adv-x="1149" d="M555 -426H51V-299H223V721L30 784L71 915L346 821Q370 837 400 853T466 881T539 901T618 909Q715 909 795 881T934 796T1024 658T1056 467Q1056 357 1024 266T932 108T791 6T610 -31Q541 -31 485 -21T383
4V-299H555V-426ZM608 100Q678 100 731 127T821 203T875 319T893 467Q893 778 616 778Q561 778 518 766T445 740Q410 723 383 702V152Q408 137 441 126Q470 116 511 108T608 100Z" />
<glyph unicode="q" glyph-name="q" horiz-adv-x="1077" d="M596 -299H768V35Q722 9 665 -11T539 -31Q440 -31 358 4T217 104T125 259T92 459Q92 558 126 640T221 783T363 876T539 909Q627 909 698 891T821 852T899 812T928 793V-299H1100V-426H596V-299ZM541 778Q476
778 423 754T333 688T276 587T256 461Q256 380 274 314T327 200T416 126T541 100Q579 100 613 108T677 127T730 152T768 178V725Q767 726 752 734T708 752T637 770T541 778Z" />
<glyph unicode="r" glyph-name="r" horiz-adv-x="884" d="M119 907L392 813Q407 823 437 839T511 871T608 898T726 909Q752 909 767 909T791 907Q800 906 803 905L838 690L705 662L685 776Q634 776 589 765T509 741Q469 726 433 707V127H633V0H101V127H273V713L76
780L119 907Z" />
<glyph unicode="s" glyph-name="s" horiz-adv-x="968" d="M722 629L701 741Q670 752 614 765T486 778Q365 778 308 753T251 662Q251 600 288 572T410 534L589 515Q661 507 714 490T803 442T857 363T875 250Q875 181 847 129T768 41T648 -13T496 -31Q393 -31 304
-12T135 43L97 252L230 281L253 144Q307 116 367 108T492 100Q610 100 667 139T724 250Q724 294 695 323T595 360L390 381Q321 388 268 407T179 458T124 538T105 651Q105 711 129 758T201 839T317 891T472 909Q536 909 584 905T673 894T749 875T820 849L855 657L722
629Z" />
<glyph unicode="t" glyph-name="t" horiz-adv-x="698" d="M621 752H365V395Q365 354 366 304T381 208T427 132T521 96Q561 96 590 101T621 106L652 -8Q634 -15 612 -20Q593 -25 568 -28T513 -31Q442 -31 386 -10T290 53T229 158T208 305V752H38V879H208V1057L365
1094V879H621V752Z" />
<glyph unicode="u" glyph-name="u" horiz-adv-x="1239" d="M676 879H1008V160L1201 94L1160 -37L881 59Q863 48 833 33T764 4T678 -21T580 -31Q482 -31 412 -9T298 56T234 164T213 315V752H41V879H373V348Q373 294 382 249T415 170T482 119T590 100Q646 100 692
110T774 135Q814 150 848 170V752H676V879Z" />
<glyph unicode="v" glyph-name="v" horiz-adv-x="1227" d="M28 879H460V752H365L623 141L881 752H791V879H1193V752H1033L697 0H524L198 752H28V879Z" />
<glyph unicode="w" glyph-name="w" horiz-adv-x="1665" d="M30 879H452V752H360L568 188L771 754H926L1114 184L1325 752H1235V879H1636V752H1462L1177 0H1022L838 553L638 0H480L202 752H30V879Z" />
<glyph unicode="x" glyph-name="x" horiz-adv-x="1247" d="M725 127H817L604 350L416 127H506V0H72V127H250L516 444L225 752H72V879H537V752H426L645 520L836 752H745V879H1155V752H1001L731 430L1020 127H1192V0H725V127Z" />
<glyph unicode="y" glyph-name="y" horiz-adv-x="1188" d="M30 879H456V752H340L616 59L862 752H749V879H1159V752H1011L671 -203Q624 -333 548 -395T356 -457Q334 -457 311 -454T268 -448T237 -441T225 -436L251 -313Q273 -319 293 -323Q310 -327 329 -329T364
-332Q381 -332 402 -327T446 -305T489 -260T528 -182L544 -135L176 752H30V879Z" />
<glyph unicode="z" glyph-name="z" horiz-adv-x="954" d="M95 666L134 879H830V776L286 127H716L738 250L875 225L832 0H103V109L642 752H249L228 637L95 666Z" />
<glyph unicode="{" glyph-name="braceleft" horiz-adv-x="631" d="M542 -268Q378 -256 306 -169T233 76V305Q233 324 233 352T229 405T213 449T178 467H30V580H178Q201 580 212 598T228 641T233 694T233 741V991Q233 1149 305 1236T542 1335L560 1210Q502 1203
466 1182T411 1127T385 1051T378 958V700Q378 626 350 585T274 522Q322 502 350 460T378 346V109Q378 59 384 16T410 -60T466 -114T560 -143L542 -268Z" />
<glyph unicode="|" glyph-name="bar" horiz-adv-x="459" d="M157 1337H302V-424H157V1337Z" />
<glyph unicode="}" glyph-name="braceright" horiz-adv-x="632" d="M71 -143Q129 -136 165 -115T221 -60T247 16T254 109V346Q254 418 282 460T358 522Q310 544 282 585T254 700V958Q254 1007 248 1050T221 1127T165 1181T71 1210L90 1335Q254 1323 326 1236T399
991V741Q399 722 399 695T403 642T419 598T454 580H602V467H454Q431 467 420 449T404 406T399 352T399 305V76Q399 -82 327 -169T90 -268L71 -143Z" />
<glyph unicode="~" glyph-name="asciitilde" horiz-adv-x="1057" d="M519 387Q487 404 445 419T364 435Q353 435 344 434T325 430Q299 422 277 413T240 395T216 382T208 377L138 487Q159 501 186 516T243 543T306 563T371 571Q429 571 471 558T548 529T618 500T694
487Q703 487 712 488T730 492Q756 500 778 510T816 528T841 543T849 549L919 438L875 411Q830 385 779 367T676 349Q628 349 588 360T519 387Z" />
<glyph unicode="&#xa1;" glyph-name="exclamdown" horiz-adv-x="462" d="M314 -426H152L170 498H289L314 -426ZM357 782Q357 757 347 734T319 694T278 666T230 655Q204 655 181 665T140 693T113 734T103 782Q103 808 113 831T140 871T180 899T230 909Q255 909
278 899T318 872T346 831T357 782Z" />
<glyph unicode="&#xa2;" glyph-name="cent" horiz-adv-x="939" d="M709 770L682 911Q673 916 648 923T580 936V266Q625 273 664 287T732 315Q766 332 795 350L862 250Q862 249 841 234T781 200T692 162T580 135V-154H438V135Q355 147 287 184T171 281T97 420T70
600Q70 698 96 778T171 918T287 1014T438 1063V1335H580V1067Q634 1063 675 1056T743 1040Q775 1030 797 1020L840 799L709 770ZM234 600Q234 463 284 378T438 270V930Q335 907 285 822T234 600Z" />
<glyph unicode="&#xa3;" glyph-name="sterling" horiz-adv-x="1017" d="M126 670H277Q272 739 271 799T269 911Q269 983 293 1043T362 1146T467 1213T601 1237Q646 1237 679 1231T738 1215T787 1190T832 1159L869 911L732 893L701 1081Q683 1089 660 1094T603
1100Q528 1100 481 1053T433 915Q433 901 433 876T435 819T439 748T443 670H732V528H451L457 469Q459 457 459 445T460 420Q460 332 435 272T371 170Q390 175 409 177T449 180Q482 180 513 170T575 149T640 127T709 117Q744 117 774 126T827 148Q853 162 875 180L951
61Q941 54 929 46Q918 39 905 31T877 16Q837 -2 788 -16T695 -31Q661 -31 632 -26T578 -15T537 -1T513 10Q482 26 444 40T361 55Q327 55 294 44T234 18T189 -10T167 -27L85 82Q91 87 98 92Q104 97 111 103T128 117Q151 137 181 168T238 242T283 338T302 453Q302
465 301 478T298 506L294 528H126V670Z" />
<glyph unicode="&#xa4;" glyph-name="currency" horiz-adv-x="1080" d="M192 479Q192 538 210 589T260 684L120 778L194 887L362 772Q400 795 446 807T542 819Q592 819 636 808T720 774L886 887L958 780L823 688Q858 645 877 592T897 479Q897 420 879 369T829
276L960 190L886 82L725 188Q684 167 639 155T542 143Q491 143 445 155T358 190L194 80L120 188L258 279Q227 321 210 370T192 479ZM325 479Q325 434 342 394T388 324T457 277T542 260Q589 260 629 277T698 324T744 394T761 479Q761 525 745 565T699 636T629 684T542
702Q497 702 457 685T388 637T342 566T325 479Z" />
<glyph unicode="&#xa5;" glyph-name="yen" horiz-adv-x="1438" d="M61 1206H551V1065H442L731 705L1006 1065H893V1206H1378V1065H1182L827 602H1135V483H801V389H1135V270H801L799 141H991V0H444V141H637V270H301V389H637V483H301V602H608L233 1065H61V1206Z" />
<glyph unicode="&#xa6;" glyph-name="brokenbar" horiz-adv-x="472" d="M164 1337H308V614H164V1337ZM164 295H308V-428H164V295Z" />
<glyph unicode="&#xa7;" glyph-name="section" horiz-adv-x="1000" d="M713 950L688 1087Q662 1098 618 1109T508 1120Q460 1120 419 1112T348 1088T300 1048T282 993Q282 961 306 937T364 895T438 864T508 844Q591 822 661 797T782 737T862 656T891 545Q891 506
869 469T816 401T752 348T696 315Q737 298 770 278T828 231T865 171T878 94Q878 27 846 -26T761 -116T643 -173T510 -193Q433 -193 372 -177T268 -142T201 -106T176 -88L143 92L268 117L291 -10Q317 -29 366 -44T498 -59Q535 -59 575 -50T650 -24T705 18T727 76Q727
116 700 142T630 186T536 216T438 242Q378 259 321 280T219 332T147 409T119 520Q119 573 139 611T190 674T254 713T317 735Q278 750 244 770T184 819T144 885T129 973Q129 1029 153 1077T224 1160T338 1216T493 1237Q571 1237 634 1222T739 1190Q754 1184 766
1178T787 1167Q797 1162 805 1157L837 975L713 950ZM739 518Q739 560 715 587T652 633T562 665T457 692Q429 688 397 680T336 656T289 615T270 553Q269 513 289 484T341 435T408 401T475 381Q503 373 529 366T581 352Q605 361 632 377T684 416T723 463T739 518Z"
/>
<glyph unicode="&#xa8;" glyph-name="dieresis" horiz-adv-x="723" d="M291 1112Q291 1088 282 1068T257 1031T220 1006T176 997Q152 997 132 1006T95 1031T70 1067T61 1112Q61 1135 70 1156T95 1192T131 1217T176 1227Q199 1227 220 1218T256 1193T281 1156T291
1112ZM655 1112Q655 1088 646 1068T621 1031T585 1006T541 997Q517 997 496 1006T460 1031T435 1067T426 1112Q426 1135 435 1156T459 1192T496 1217T541 1227Q564 1227 584 1218T621 1193T646 1156T655 1112Z" />
<glyph unicode="&#xa9;" glyph-name="copyright" horiz-adv-x="1657" d="M1153 428L1100 264Q1071 250 1033 239Q1001 230 956 223T856 215Q767 215 696 239T575 312T497 433T467 600Q467 697 494 770T572 892T695 966T856 991Q916 991 962 980T1040 955Q1077
939 1104 920L1151 774L1038 739L1001 838Q987 846 968 853Q951 858 927 863T868 868Q800 868 752 848T672 792T627 708T612 602Q612 546 627 498T674 413T754 357T868 336Q894 336 918 340T961 349T991 360T1003 367L1034 463L1153 428ZM96 600Q96 761 151 896T304
1128T536 1280T831 1335Q990 1335 1124 1281T1354 1129T1505 896T1560 600Q1560 495 1536 400T1466 224T1355 78T1208 -33T1032 -104T831 -129Q671 -129 537 -74T304 78T151 308T96 600ZM225 590Q225 465 268 357T389 170T578 45T823 0Q957 0 1068 45T1260 169T1386
357T1431 590Q1431 720 1386 833T1261 1028T1069 1158T823 1206Q689 1206 579 1159T390 1029T268 833T225 590Z" />
<glyph unicode="&#xaa;" glyph-name="ordfeminine" horiz-adv-x="799" d="M146 748L168 872Q197 885 248 897T354 909Q441 909 489 886T560 827T587 748T592 666V455L713 416L682 322L506 381Q474 356 430 341T332 326Q278 326 237 340T169 378T127 434T113 505Q113
549 130 580T176 630T243 659T324 668L475 666Q475 720 472 738T458 774T421 803T359 813Q327 813 301 809T258 799L242 729L146 748ZM338 420Q388 420 422 438T475 471V575H328Q309 575 292 573T261 562T240 539T232 500Q232 460 262 440T338 420Z" />
<glyph unicode="&#xab;" glyph-name="guillemotleft" horiz-adv-x="832" d="M507 76L405 4L79 444L405 885L507 813L245 444L507 76ZM714 207L601 141L394 444L601 748L714 682L554 444L714 207Z" />
<glyph unicode="&#xac;" glyph-name="logicalnot" horiz-adv-x="1208" d="M115 874H1051V453H891V733H115V874Z" />
<glyph unicode="&#xad;" glyph-name="uni00AD" horiz-adv-x="785" d="M126 481V635H659V481H126Z" />
<glyph unicode="&#xae;" glyph-name="registered" horiz-adv-x="1291" d="M118 735Q118 849 158 945T268 1113T435 1224T646 1264Q760 1264 856 1224T1023 1113T1133 946T1173 735Q1173 621 1134 525T1024 359T857 249T646 209Q532 209 436 248T269 358T158 525T118
735ZM237 727Q237 639 266 563T349 431T478 343T644 311Q734 311 809 343T939 431T1023 563T1054 727Q1054 818 1024 897T939 1034T810 1126T644 1159Q553 1159 478 1126T350 1035T267 897T237 727ZM937 461H778L663 670H591V551H653V461H407V551H491V936H407V1024H665Q725
1024 765 1013T830 980T865 924T876 844Q876 782 848 744T769 688L847 551H937V461ZM593 936V762H667Q685 762 703 764T737 775T761 800T771 842Q771 873 764 891T742 920T707 933T663 936H593Z" />
<glyph unicode="&#xaf;" glyph-name="overscore" horiz-adv-x="750" d="M74 1165H686V1024H74V1165Z" />
<glyph unicode="&#xb0;" glyph-name="degree" horiz-adv-x="639" d="M528 1026Q528 975 511 936T465 871T399 831T319 817Q278 817 241 830T175 870T129 936T111 1026Q111 1077 128 1116T174 1182T240 1223T319 1237Q361 1237 398 1223T465 1182T511 1116T528
1026ZM219 1026Q219 1000 227 980T250 946T282 925T319 918Q358 918 388 945T418 1026Q418 1079 388 1107T319 1135Q300 1135 282 1128T250 1107T228 1073T219 1026Z" />
<glyph unicode="&#xb1;" glyph-name="plusminus" horiz-adv-x="1061" d="M150 862H454V1171H607V862H912V721H607V410H454V721H150V862ZM150 281H912V139H150V281Z" />
<glyph unicode="&#xb2;" glyph-name="twosuperior" horiz-adv-x="809" d="M558 579L623 684L714 639L613 475H144L122 536Q133 586 157 626T213 698T280 758T351 809Q382 831 412 853T465 900T503 952T517 1012Q517 1033 510 1054T486 1092T442 1121T376 1132Q339
1132 310 1120T257 1091T214 1053L128 1134Q154 1162 188 1183T268 1221T374 1237Q436 1237 486 1221T571 1174T625 1103T644 1012Q644 964 625 925T576 852T507 790T431 735Q403 717 378 699T330 662T292 623T267 579H558Z" />
<glyph unicode="&#xb3;" glyph-name="threesuperior" horiz-adv-x="776" d="M186 635Q210 614 241 598Q267 584 303 573T382 561Q419 561 447 570T494 596T522 635T532 682Q532 730 512 755T464 792T406 804T354 805H286V911H380Q442 911 477 935T513 1020Q513
1054 500 1075T466 1109T421 1127T374 1133Q338 1133 310 1122T261 1097T231 1071T219 1057L128 1145Q134 1151 153 1166T202 1197T276 1225T376 1237Q434 1237 482 1222T564 1178T618 1109T638 1020Q638 991 630 967T609 923T578 888T542 864Q564 856 585 840T622
802T647 750T657 684Q657 641 642 600T594 528T507 477T378 457Q313 457 263 471T178 504Q138 524 108 551L186 635Z" />
<glyph unicode="&#xb4;" glyph-name="acute" horiz-adv-x="760" d="M510 1294L582 1159L104 942L68 1008L510 1294Z" />
<glyph unicode="&#xb5;" glyph-name="mu" horiz-adv-x="1234" d="M348 -74Q349 -142 357 -191T384 -271T436 -317T518 -332Q538 -332 557 -330T591 -324T621 -315L647 -438Q615 -449 575 -454T498 -459Q371 -459 285 -391Q252 -365 233 -331T205 -257T193 -170T190
-76V879H350V455Q350 363 359 297T393 186T460 121T567 100Q623 100 669 111T753 137T825 172V879H985V162L1178 96L1137 -35L858 61Q840 50 810 35T741 5T655 -20T557 -31Q515 -31 481 -23T422 -3T377 24T346 51L348 -74Z" />
<glyph unicode="&#xb6;" glyph-name="paragraph" horiz-adv-x="1215" d="M643 0H305V141H504V614H430Q330 614 262 633T151 691T89 786T70 920Q70 991 95 1044T164 1134T269 1188T399 1206H1118V1065H930V141H1110V0H790V1065H643V0Z" />
<glyph unicode="&#xb7;" glyph-name="middot" horiz-adv-x="530" d="M392 451Q392 425 382 402T354 361T314 334T266 324Q240 324 217 334T176 361T149 401T139 451Q139 477 149 500T176 540T216 568T266 578Q291 578 314 568T354 541T381 500T392 451Z" />
<glyph unicode="&#xb8;" glyph-name="cedilla" horiz-adv-x="520" d="M258 -129Q364 -129 421 -167T479 -289Q479 -334 461 -365T413 -417T342 -447T258 -457Q208 -457 168 -445T100 -419T56 -393T39 -381L84 -305Q107 -321 132 -331T188 -350T254 -358Q313 -358
340 -341T367 -289Q367 -274 363 -261T344 -239T303 -224T231 -219H156V63Q157 62 258 43V-129Z" />
<glyph unicode="&#xb9;" glyph-name="onesuperior" horiz-adv-x="755" d="M118 977L396 1206H476L474 565H659V461H147V565H351L353 1030L186 893L118 977Z" />
<glyph unicode="&#xba;" glyph-name="ordmasculine" horiz-adv-x="781" d="M389 330Q328 330 277 349T190 406T133 496T112 618Q112 687 132 741T189 833T277 889T389 909Q452 909 503 890T592 833T649 742T669 618Q669 550 649 497T592 406T504 350T389 330ZM391
811Q310 811 270 761T229 618Q229 527 269 478T391 428Q471 428 512 477T553 618Q553 711 512 761T391 811Z" />
<glyph unicode="&#xbb;" glyph-name="guillemotright" horiz-adv-x="832" d="M587 444L325 813L427 885L753 444L427 4L325 76L587 444ZM280 444L118 682L231 748L438 444L231 141L118 207L280 444Z" />
<glyph unicode="&#xbc;" glyph-name="onequarter" horiz-adv-x="1629" d="M1446 203V99H1559V0H1200V99H1329V203H973V264L1210 791L1311 731L1165 430L1106 301H1329V639H1448L1446 301L1563 303V203H1446ZM617 -156H484L1080 1335H1211L617 -156ZM70 977L348
1206H428L426 565H611V461H99V565H303L305 1030L138 893L70 977Z" />
<glyph unicode="&#xbd;" glyph-name="onehalf" horiz-adv-x="1703" d="M617 -156H484L1080 1335H1211L617 -156ZM334 977L612 1206H692L690 565H875V461H363V565H567L569 1030L402 893L334 977ZM1486 105L1551 210L1642 165L1541 1H1072L1050 62Q1061 112 1085
152T1141 224T1208 284T1279 335Q1310 357 1340 379T1393 426T1431 478T1445 538Q1445 559 1438 580T1414 618T1370 647T1304 658Q1267 658 1238 646T1185 617T1142 579L1056 660Q1082 688 1116 709T1196 747T1302 763Q1364 763 1414 747T1499 700T1553 629T1572
538Q1572 490 1553 451T1504 378T1435 316T1359 261Q1331 243 1306 225T1258 188T1220 149T1195 105H1486Z" />
<glyph unicode="&#xbe;" glyph-name="threequarters" horiz-adv-x="1616" d="M1434 203V99H1547V0H1188V99H1317V203H961V264L1198 791L1299 731L1153 430L1094 301H1317V639H1436L1434 301L1551 303V203H1434ZM590 -156H457L1053 1335H1184L590 -156ZM144 635Q168
614 199 598Q225 584 261 573T340 561Q377 561 405 570T452 596T480 635T490 682Q490 730 470 755T422 792T364 804T312 805H244V911H338Q400 911 435 935T471 1020Q471 1054 458 1075T424 1109T379 1127T332 1133Q296 1133 268 1122T219 1097T189 1071T177 1057L86
1145Q92 1151 111 1166T160 1197T234 1225T334 1237Q392 1237 440 1222T522 1178T576 1109T596 1020Q596 991 588 967T567 923T536 888T500 864Q522 856 543 840T580 802T605 750T615 684Q615 641 600 600T552 528T465 477T336 457Q271 457 221 471T136 504Q96
524 66 551L144 635Z" />
<glyph unicode="&#xbf;" glyph-name="questiondown" horiz-adv-x="871" d="M295 164Q326 181 354 194T405 222T441 253T455 291Q455 311 446 327T422 355T393 377T365 393L444 502Q445 501 457 495T488 477T528 448T568 405T598 348T610 276Q610 227 588 191T535
128T472 85T418 55Q384 36 352 18T293 -24T251 -76T235 -147Q235 -168 246 -193T283 -239T347 -274T440 -289Q513 -289 563 -279T645 -256L674 -82L809 -96L774 -348Q772 -348 754 -360T697 -387T595 -414T438 -426Q335 -426 264 -397T147 -326T82 -234T61 -145Q61
-45 119 28T295 164ZM580 752Q580 726 570 703T542 662T501 635T453 625Q427 625 404 635T363 662T336 702T326 752Q326 777 336 800T363 840T403 868T453 879Q478 879 501 869T541 841T569 800T580 752Z" />
<glyph unicode="&#xc0;" glyph-name="Agrave" horiz-adv-x="1326" d="M1304 0H806V141H935L871 328H429L359 141H489V0H13V141H208L548 1065H341V1206H740L1109 141H1304V0ZM480 469H822L659 999L480 469ZM754 1389L736 1315L220 1411L257 1561L754 1389Z" />
<glyph unicode="&#xc1;" glyph-name="Aacute" horiz-adv-x="1326" d="M1304 0H806V141H935L871 328H429L359 141H489V0H13V141H208L548 1065H341V1206H740L1109 141H1304V0ZM480 469H822L659 999L480 469ZM1056 1552L1093 1403L577 1307L559 1380L1056 1552Z" />
<glyph unicode="&#xc2;" glyph-name="Acircumflex" horiz-adv-x="1326" d="M1304 0H806V141H935L871 328H429L359 141H489V0H13V141H208L548 1065H341V1206H740L1109 141H1304V0ZM480 469H822L659 999L480 469ZM658 1593L967 1374L930 1308L658 1444L386 1308L349
1374L658 1593Z" />
<glyph unicode="&#xc3;" glyph-name="Atilde" horiz-adv-x="1326" d="M1304 0H806V141H935L871 328H429L359 141H489V0H13V141H208L548 1065H341V1206H740L1109 141H1304V0ZM480 469H822L659 999L480 469ZM659 1491Q676 1479 692 1467T726 1444T761 1427T802 1420Q830
1420 865 1434T946 1483L1013 1403Q990 1384 964 1364T908 1328T846 1301T780 1290Q751 1290 721 1299T659 1331Q642 1343 626 1355T592 1378T556 1396T515 1403Q487 1403 452 1389T372 1339L305 1419Q328 1438 354 1458T410 1494T471 1520T537 1531Q566 1531 596
1522T659 1491Z" />
<glyph unicode="&#xc4;" glyph-name="Adieresis" horiz-adv-x="1326" d="M1304 0H806V141H935L871 328H429L359 141H489V0H13V141H208L548 1065H341V1206H740L1109 141H1304V0ZM480 469H822L659 999L480 469ZM591 1429Q591 1405 582 1385T557 1348T520 1323T476
1314Q452 1314 432 1323T395 1348T370 1384T361 1429Q361 1452 370 1473T395 1509T431 1534T476 1544Q499 1544 520 1535T556 1510T581 1473T591 1429ZM955 1429Q955 1405 946 1385T921 1348T885 1323T841 1314Q817 1314 796 1323T760 1348T735 1384T726 1429Q726
1452 735 1473T759 1509T796 1534T841 1544Q864 1544 884 1535T921 1510T946 1473T955 1429Z" />
<glyph unicode="&#xc5;" glyph-name="Aring" horiz-adv-x="1326" d="M1304 0H806V141H935L871 328H429L359 141H489V0H13V141H208L548 1065H341V1206H740L1109 141H1304V0ZM480 469H822L659 999L480 469ZM483 1472Q483 1508 497 1540T535 1596T591 1634T659 1648Q695
1648 727 1634T783 1596T821 1540T835 1472Q835 1436 821 1404T783 1348T727 1310T659 1296Q623 1296 591 1310T535 1348T497 1404T483 1472ZM579 1472Q579 1456 585 1442T603 1416T628 1399T659 1392Q675 1392 689 1398T715 1416T732 1441T739 1472Q739 1488 733
1502T715 1528T690 1545T659 1552Q643 1552 629 1546T603 1528T586 1503T579 1472Z" />
<glyph unicode="&#xc6;" glyph-name="AE" horiz-adv-x="1856" d="M769 141H963V328H500L384 141H504V0H13V141H218L803 1065H592V1206H1623L1729 891L1594 846L1512 1065H1129V674H1457V532H1127V141H1553L1635 360L1770 315L1664 0H769V141ZM961 1065L588 469H963L965
1065H961Z" />
<glyph unicode="&#xc7;" glyph-name="Ccedilla" horiz-adv-x="1217" d="M1111 283L1060 45Q1016 24 960 7Q912 -7 845 -19T694 -31Q684 -31 679 -31T659 -29V-139H667Q775 -139 833 -176T892 -295Q892 -338 874 -369T824 -419T752 -448T665 -457Q621 -457 584
-447T518 -424T470 -398T442 -379L491 -305Q514 -322 542 -334Q565 -345 596 -353T663 -362Q720 -362 745 -343T771 -295Q771 -280 767 -268T749 -248T709 -234T640 -229H560V-16Q456 4 374 56T233 187T144 372T112 604Q111 748 152 865T269 1065T452 1193T692
1237Q793 1236 864 1222T981 1189T1048 1157T1070 1141L1115 903L974 872L933 1049Q902 1066 844 1082T694 1098Q595 1098 519 1064T392 965T313 810T286 604Q286 487 313 396T393 240T521 143T694 109Q770 109 832 123T933 152L972 315L1111 283Z" />
<glyph unicode="&#xc8;" glyph-name="Egrave" horiz-adv-x="1240" d="M1154 315L1048 0H97V141H292L294 1065H99V1206H1007L1113 891L978 846L896 1065H458V694H841V553H458L456 141H937L1019 360L1154 315ZM658 1389L640 1315L124 1411L161 1561L658 1389Z" />
<glyph unicode="&#xc9;" glyph-name="Eacute" horiz-adv-x="1240" d="M1154 315L1048 0H97V141H292L294 1065H99V1206H1007L1113 891L978 846L896 1065H458V694H841V553H458L456 141H937L1019 360L1154 315ZM888 1552L925 1403L409 1307L391 1380L888 1552Z" />
<glyph unicode="&#xca;" glyph-name="Ecircumflex" horiz-adv-x="1240" d="M609 1593L918 1374L881 1308L609 1444L337 1308L300 1374L609 1593ZM1154 315L1048 0H97V141H292L294 1065H99V1206H1007L1113 891L978 846L896 1065H458V694H841V553H458L456 141H937L1019
360L1154 315Z" />
<glyph unicode="&#xcb;" glyph-name="Edieresis" horiz-adv-x="1240" d="M1154 315L1048 0H97V141H292L294 1065H99V1206H1007L1113 891L978 846L896 1065H458V694H841V553H458L456 141H937L1019 360L1154 315ZM550 1429Q550 1405 541 1385T516 1348T479 1323T435
1314Q411 1314 391 1323T354 1348T329 1384T320 1429Q320 1452 329 1473T354 1509T390 1534T435 1544Q458 1544 479 1535T515 1510T540 1473T550 1429ZM914 1429Q914 1405 905 1385T880 1348T844 1323T800 1314Q776 1314 755 1323T719 1348T694 1384T685 1429Q685
1452 694 1473T718 1509T755 1534T800 1544Q823 1544 843 1535T880 1510T905 1473T914 1429Z" />
<glyph unicode="&#xcc;" glyph-name="Igrave" horiz-adv-x="750" d="M99 1206H652V1065H460L456 141H652V0H97V141H294V1065H99V1206ZM479 1389L461 1315L-55 1411L-18 1561L479 1389Z" />
<glyph unicode="&#xcd;" glyph-name="Iacute" horiz-adv-x="750" d="M99 1206H652V1065H460L456 141H652V0H97V141H294V1065H99V1206ZM753 1552L790 1403L274 1307L256 1380L753 1552Z" />
<glyph unicode="&#xce;" glyph-name="Icircumflex" horiz-adv-x="750" d="M372 1593L681 1374L644 1308L372 1444L100 1308L63 1374L372 1593ZM99 1206H652V1065H460L456 141H652V0H97V141H294V1065H99V1206Z" />
<glyph unicode="&#xcf;" glyph-name="Idieresis" horiz-adv-x="750" d="M99 1206H652V1065H460L456 141H652V0H97V141H294V1065H99V1206ZM306 1429Q306 1405 297 1385T272 1348T235 1323T191 1314Q167 1314 147 1323T110 1348T85 1384T76 1429Q76 1452 85 1473T110
1509T146 1534T191 1544Q214 1544 235 1535T271 1510T296 1473T306 1429ZM670 1429Q670 1405 661 1385T636 1348T600 1323T556 1314Q532 1314 511 1323T475 1348T450 1384T441 1429Q441 1452 450 1473T474 1509T511 1534T556 1544Q579 1544 599 1535T636 1510T661
1473T670 1429Z" />
<glyph unicode="&#xd0;" glyph-name="Eth" horiz-adv-x="1381" d="M102 688H297V1065H102V1206H647Q785 1206 899 1176T1095 1073T1222 882T1267 584Q1267 449 1221 341T1093 157T901 41T663 0H102V141H297V557H102V688ZM461 688H692V557H461V141H626Q858 141
975 253T1093 584Q1093 732 1064 825T978 972T838 1045T647 1065H461V688Z" />
<glyph unicode="&#xd1;" glyph-name="Ntilde" horiz-adv-x="1507" d="M902 1206H1435V1065H1238V0H1037L454 1065L458 141H630V0H97V141H292L290 1065H99V1206H550L1074 250V1065H902V1206ZM773 1491Q790 1479 806 1467T840 1444T875 1427T916 1420Q944 1420 979
1434T1060 1483L1127 1403Q1104 1384 1078 1364T1022 1328T960 1301T894 1290Q865 1290 835 1299T773 1331Q756 1343 740 1355T706 1378T670 1396T629 1403Q601 1403 566 1389T486 1339L419 1419Q442 1438 468 1458T524 1494T585 1520T651 1531Q680 1531 710 1522T773
1491Z" />
<glyph unicode="&#xd2;" glyph-name="Ograve" horiz-adv-x="1342" d="M671 1098Q573 1098 501 1065T380 968T308 813T284 604Q284 487 308 396T380 240T500 143T671 109Q768 109 841 142T962 240T1034 395T1058 604Q1058 721 1034 812T962 967T841 1064T671 1098ZM671
-31Q546 -31 443 13T266 140T151 340T110 604Q110 750 150 867T265 1066T441 1193T669 1237Q795 1237 898 1193T1076 1067T1191 867T1232 604Q1232 458 1192 341T1078 141T901 14T671 -31ZM765 1389L747 1315L231 1411L268 1561L765 1389Z" />
<glyph unicode="&#xd3;" glyph-name="Oacute" horiz-adv-x="1342" d="M671 1098Q573 1098 501 1065T380 968T308 813T284 604Q284 487 308 396T380 240T500 143T671 109Q768 109 841 142T962 240T1034 395T1058 604Q1058 721 1034 812T962 967T841 1064T671 1098ZM671
-31Q546 -31 443 13T266 140T151 340T110 604Q110 750 150 867T265 1066T441 1193T669 1237Q795 1237 898 1193T1076 1067T1191 867T1232 604Q1232 458 1192 341T1078 141T901 14T671 -31ZM1039 1552L1076 1403L560 1307L542 1380L1039 1552Z" />
<glyph unicode="&#xd4;" glyph-name="Ocircumflex" horiz-adv-x="1342" d="M665 1593L974 1374L937 1308L665 1444L393 1308L356 1374L665 1593ZM671 1098Q573 1098 501 1065T380 968T308 813T284 604Q284 487 308 396T380 240T500 143T671 109Q768 109 841 142T962
240T1034 395T1058 604Q1058 721 1034 812T962 967T841 1064T671 1098ZM671 -31Q546 -31 443 13T266 140T151 340T110 604Q110 750 150 867T265 1066T441 1193T669 1237Q795 1237 898 1193T1076 1067T1191 867T1232 604Q1232 458 1192 341T1078 141T901 14T671
-31Z" />
<glyph unicode="&#xd5;" glyph-name="Otilde" horiz-adv-x="1342" d="M671 1098Q573 1098 501 1065T380 968T308 813T284 604Q284 487 308 396T380 240T500 143T671 109Q768 109 841 142T962 240T1034 395T1058 604Q1058 721 1034 812T962 967T841 1064T671 1098ZM671
-31Q546 -31 443 13T266 140T151 340T110 604Q110 750 150 867T265 1066T441 1193T669 1237Q795 1237 898 1193T1076 1067T1191 867T1232 604Q1232 458 1192 341T1078 141T901 14T671 -31ZM667 1491Q684 1479 700 1467T734 1444T769 1427T810 1420Q838 1420 873
1434T954 1483L1021 1403Q998 1384 972 1364T916 1328T854 1301T788 1290Q759 1290 729 1299T667 1331Q650 1343 634 1355T600 1378T564 1396T523 1403Q495 1403 460 1389T380 1339L313 1419Q336 1438 362 1458T418 1494T479 1520T545 1531Q574 1531 604 1522T667
1491Z" />
<glyph unicode="&#xd6;" glyph-name="Odieresis" horiz-adv-x="1342" d="M671 1098Q573 1098 501 1065T380 968T308 813T284 604Q284 487 308 396T380 240T500 143T671 109Q768 109 841 142T962 240T1034 395T1058 604Q1058 721 1034 812T962 967T841 1064T671
1098ZM671 -31Q546 -31 443 13T266 140T151 340T110 604Q110 750 150 867T265 1066T441 1193T669 1237Q795 1237 898 1193T1076 1067T1191 867T1232 604Q1232 458 1192 341T1078 141T901 14T671 -31ZM602 1429Q602 1405 593 1385T568 1348T531 1323T487 1314Q463
1314 443 1323T406 1348T381 1384T372 1429Q372 1452 381 1473T406 1509T442 1534T487 1544Q510 1544 531 1535T567 1510T592 1473T602 1429ZM966 1429Q966 1405 957 1385T932 1348T896 1323T852 1314Q828 1314 807 1323T771 1348T746 1384T737 1429Q737 1452 746
1473T770 1509T807 1534T852 1544Q875 1544 895 1535T932 1510T957 1473T966 1429Z" />
<glyph unicode="&#xd7;" glyph-name="multiply" horiz-adv-x="890" d="M132 432L341 633L132 834L234 948L451 739L660 940L758 829L558 637L762 440L660 326L447 530L230 322L132 432Z" />
<glyph unicode="&#xd8;" glyph-name="Oslash" horiz-adv-x="1340" d="M1010 1127Q1115 1046 1173 914T1231 604Q1231 458 1191 341T1077 141T900 14T670 -31Q623 -31 580 -25T495 -6L434 -141H283L370 51Q248 129 179 270T109 604Q109 750 149 867T264 1066T440
1193T668 1237Q790 1237 891 1195L954 1333H1104L1010 1127ZM670 1098Q572 1098 500 1065T379 968T307 813T283 604Q283 458 319 353T431 185L833 1067Q798 1082 758 1090T670 1098ZM1057 604Q1057 730 1030 826T946 985L554 123Q580 115 609 112T670 109Q767 109
840 142T961 240T1033 395T1057 604Z" />
<glyph unicode="&#xd9;" glyph-name="Ugrave" horiz-adv-x="1379" d="M680 109Q762 109 817 135T906 210T954 329T969 487V1065H838V1206H1329V1065H1133V481Q1133 375 1115 296T1064 159T989 65T895 7T790 -22T680 -31Q627 -31 575 -23T474 7T385 65T314 159T266
295T248 481V1065H51V1206H543V1065H412V467Q412 378 425 311T470 199T552 132T680 109ZM717 1389L699 1315L183 1411L220 1561L717 1389Z" />
<glyph unicode="&#xda;" glyph-name="Uacute" horiz-adv-x="1379" d="M680 109Q762 109 817 135T906 210T954 329T969 487V1065H838V1206H1329V1065H1133V481Q1133 375 1115 296T1064 159T989 65T895 7T790 -22T680 -31Q627 -31 575 -23T474 7T385 65T314 159T266
295T248 481V1065H51V1206H543V1065H412V467Q412 378 425 311T470 199T552 132T680 109ZM1110 1552L1147 1403L631 1307L613 1380L1110 1552Z" />
<glyph unicode="&#xdb;" glyph-name="Ucircumflex" horiz-adv-x="1379" d="M690 1593L999 1374L962 1308L690 1444L418 1308L381 1374L690 1593ZM680 109Q762 109 817 135T906 210T954 329T969 487V1065H838V1206H1329V1065H1133V481Q1133 375 1115 296T1064 159T989
65T895 7T790 -22T680 -31Q627 -31 575 -23T474 7T385 65T314 159T266 295T248 481V1065H51V1206H543V1065H412V467Q412 378 425 311T470 199T552 132T680 109Z" />
<glyph unicode="&#xdc;" glyph-name="Udieresis" horiz-adv-x="1379" d="M680 109Q762 109 817 135T906 210T954 329T969 487V1065H838V1206H1329V1065H1133V481Q1133 375 1115 296T1064 159T989 65T895 7T790 -22T680 -31Q627 -31 575 -23T474 7T385 65T314 159T266
295T248 481V1065H51V1206H543V1065H412V467Q412 378 425 311T470 199T552 132T680 109ZM623 1429Q623 1405 614 1385T589 1348T552 1323T508 1314Q484 1314 464 1323T427 1348T402 1384T393 1429Q393 1452 402 1473T427 1509T463 1534T508 1544Q531 1544 552 1535T588
1510T613 1473T623 1429ZM987 1429Q987 1405 978 1385T953 1348T917 1323T873 1314Q849 1314 828 1323T792 1348T767 1384T758 1429Q758 1452 767 1473T791 1509T828 1534T873 1544Q896 1544 916 1535T953 1510T978 1473T987 1429Z" />
<glyph unicode="&#xdd;" glyph-name="Yacute" horiz-adv-x="1357" d="M22 1206H512V1065H403L692 705L967 1065H854V1206H1339V1065H1143L764 567L760 141H952V0H405V141H598L600 561L194 1065H22V1206ZM1101 1552L1138 1403L622 1307L604 1380L1101 1552Z" />
<glyph unicode="&#xde;" glyph-name="Thorn" horiz-adv-x="1019" d="M455 778V426H541Q559 426 583 427T632 433T682 449T726 482T758 535T770 616Q770 680 748 713T691 760T616 776T537 778H455ZM98 141H289V1065H98V1206H696V1065H455V920H553Q647 920 720 906T843
856T918 763T944 616Q944 535 919 473T847 369T737 305T596 283H453V141H698V0H98V141Z" />
<glyph unicode="&#xdf;" glyph-name="germandbls" horiz-adv-x="1216" d="M96 127H268V752H96V879H268V969Q268 1055 288 1119T353 1227T466 1293T634 1315Q717 1315 780 1296T886 1241T950 1158T972 1053Q972 1002 956 963T914 893T861 836T807 785T766 735T749
678Q749 652 760 633T794 597T848 568T926 537T1014 494T1087 432T1135 345T1152 229Q1152 167 1129 119T1065 37T973 -13T862 -31Q796 -31 748 -17T663 15T600 59L567 242L700 270L720 150Q734 136 752 126T798 108T864 100Q895 100 921 109T966 136T995 177T1005
229Q1005 269 990 297T951 344T898 376T825 404T736 447T657 510T607 583T589 664Q589 722 606 763T649 836T705 892T761 940T804 990T821 1053Q821 1075 810 1098T777 1141T721 1172T645 1184Q579 1184 537 1169T470 1122T437 1044T428 936V0H96V127Z" />
<glyph unicode="&#xe0;" glyph-name="agrave" horiz-adv-x="1047" d="M142 666L175 852Q213 868 260 880Q300 891 354 900T472 909Q564 909 627 892T732 845T796 776T829 694T842 604T844 516V160L1039 96L998 -35L721 59Q669 24 597 -3T433 -31Q350 -31 285 -11T175
47T105 133T80 242Q79 313 105 364T178 447T287 495T420 510L685 508V524Q685 550 685 578T682 635T666 689T632 735T572 766T478 778Q413 778 366 770T293 754L273 641L142 666ZM441 100Q486 100 524 107T592 126T646 152T685 178V379L425 381Q390 381 358 377T300
358T259 317T244 244Q244 207 260 180T303 135T366 109T441 100ZM656 1051L619 985L142 1202L214 1337L656 1051Z" />
<glyph unicode="&#xe1;" glyph-name="aacute" horiz-adv-x="1047" d="M142 666L175 852Q213 868 260 880Q300 891 354 900T472 909Q564 909 627 892T732 845T796 776T829 694T842 604T844 516V160L1039 96L998 -35L721 59Q669 24 597 -3T433 -31Q350 -31 285 -11T175
47T105 133T80 242Q79 313 105 364T178 447T287 495T420 510L685 508V524Q685 550 685 578T682 635T666 689T632 735T572 766T478 778Q413 778 366 770T293 754L273 641L142 666ZM441 100Q486 100 524 107T592 126T646 152T685 178V379L425 381Q390 381 358 377T300
358T259 317T244 244Q244 207 260 180T303 135T366 109T441 100ZM781 1335L853 1200L375 983L339 1049L781 1335Z" />
<glyph unicode="&#xe2;" glyph-name="acircumflex" horiz-adv-x="1047" d="M142 666L175 852Q213 868 260 880Q300 891 354 900T472 909Q564 909 627 892T732 845T796 776T829 694T842 604T844 516V160L1039 96L998 -35L721 59Q669 24 597 -3T433 -31Q350 -31
285 -11T175 47T105 133T80 242Q79 313 105 364T178 447T287 495T420 510L685 508V524Q685 550 685 578T682 635T666 689T632 735T572 766T478 778Q413 778 366 770T293 754L273 641L142 666ZM441 100Q486 100 524 107T592 126T646 152T685 178V379L425 381Q390
381 358 377T300 358T259 317T244 244Q244 207 260 180T303 135T366 109T441 100ZM490 1337L799 1118L762 1052L490 1188L218 1052L181 1118L490 1337Z" />
<glyph unicode="&#xe3;" glyph-name="atilde" horiz-adv-x="1047" d="M142 666L175 852Q213 868 260 880Q300 891 354 900T472 909Q564 909 627 892T732 845T796 776T829 694T842 604T844 516V160L1039 96L998 -35L721 59Q669 24 597 -3T433 -31Q350 -31 285 -11T175
47T105 133T80 242Q79 313 105 364T178 447T287 495T420 510L685 508V524Q685 550 685 578T682 635T666 689T632 735T572 766T478 778Q413 778 366 770T293 754L273 641L142 666ZM441 100Q486 100 524 107T592 126T646 152T685 178V379L425 381Q390 381 358 377T300
358T259 317T244 244Q244 207 260 180T303 135T366 109T441 100ZM788 1257Q805 1245 821 1233T855 1210T890 1193T931 1186Q959 1186 994 1200T1075 1249L1142 1169Q1119 1150 1093 1130T1037 1094T975 1067T909 1056Q880 1056 850 1065T788 1097Q771 1109 755
1121T721 1144T685 1162T644 1169Q616 1169 581 1155T501 1105L434 1185Q457 1204 483 1224T539 1260T600 1286T666 1297Q695 1297 725 1288T788 1257Z" />
<glyph unicode="&#xe4;" glyph-name="adieresis" horiz-adv-x="1047" d="M142 666L175 852Q213 868 260 880Q300 891 354 900T472 909Q564 909 627 892T732 845T796 776T829 694T842 604T844 516V160L1039 96L998 -35L721 59Q669 24 597 -3T433 -31Q350 -31 285
-11T175 47T105 133T80 242Q79 313 105 364T178 447T287 495T420 510L685 508V524Q685 550 685 578T682 635T666 689T632 735T572 766T478 778Q413 778 366 770T293 754L273 641L142 666ZM441 100Q486 100 524 107T592 126T646 152T685 178V379L425 381Q390 381
358 377T300 358T259 317T244 244Q244 207 260 180T303 135T366 109T441 100ZM427 1159Q427 1135 418 1115T393 1078T356 1053T312 1044Q288 1044 268 1053T231 1078T206 1114T197 1159Q197 1182 206 1203T231 1239T267 1264T312 1274Q335 1274 356 1265T392 1240T417
1203T427 1159ZM791 1159Q791 1135 782 1115T757 1078T721 1053T677 1044Q653 1044 632 1053T596 1078T571 1114T562 1159Q562 1182 571 1203T595 1239T632 1264T677 1274Q700 1274 720 1265T757 1240T782 1203T791 1159Z" />
<glyph unicode="&#xe5;" glyph-name="aring" horiz-adv-x="1047" d="M142 666L175 852Q213 868 260 880Q300 891 354 900T472 909Q564 909 627 892T732 845T796 776T829 694T842 604T844 516V160L1039 96L998 -35L721 59Q669 24 597 -3T433 -31Q350 -31 285 -11T175
47T105 133T80 242Q79 313 105 364T178 447T287 495T420 510L685 508V524Q685 550 685 578T682 635T666 689T632 735T572 766T478 778Q413 778 366 770T293 754L273 641L142 666ZM441 100Q486 100 524 107T592 126T646 152T685 178V379L425 381Q390 381 358 377T300
358T259 317T244 244Q244 207 260 180T303 135T366 109T441 100ZM325 1158Q325 1194 339 1226T377 1282T433 1320T501 1334Q537 1334 569 1320T625 1282T663 1226T677 1158Q677 1122 663 1090T625 1034T569 996T501 982Q465 982 433 996T377 1034T339 1090T325
1158ZM421 1158Q421 1142 427 1128T445 1102T470 1085T501 1078Q517 1078 531 1084T557 1102T574 1127T581 1158Q581 1174 575 1188T557 1214T532 1231T501 1238Q485 1238 471 1232T445 1214T428 1189T421 1158Z" />
<glyph unicode="&#xe6;" glyph-name="ae" horiz-adv-x="1614" d="M1125 -31Q1022 -31 940 2T797 98Q771 80 728 58T634 16T530 -17T433 -31Q349 -31 284 -10T173 48T104 137T80 247Q80 317 107 366T180 448T288 495T420 510L685 508V524V571Q685 607 680 644T654
710T592 759T478 778Q412 778 366 770T293 754L273 641L142 666L175 852Q220 872 294 890T472 909Q538 909 589 895T679 856T745 801T791 735Q821 772 858 804T941 859T1038 895T1150 909Q1224 909 1289 891T1404 826T1481 703T1510 509Q1510 459 1504 401L844
397Q852 253 922 177T1127 100Q1185 100 1233 110T1319 135T1387 167T1438 201L1512 104Q1512 103 1487 82T1412 36T1290 -10T1125 -31ZM441 100Q477 100 516 108T594 130T668 161T732 195Q691 275 681 379L425 381Q390 381 358 377T300 358T259 316T244 244Q244
207 260 180T303 135T366 109T441 100ZM1145 778Q1085 778 1034 761T945 711T881 631T846 524L1365 526Q1363 650 1312 714T1145 778Z" />
<glyph unicode="&#xe7;" glyph-name="ccedilla" horiz-adv-x="964" d="M735 610L709 752Q696 758 657 768T545 778Q403 778 332 690T260 440Q260 279 331 190T545 100Q590 100 630 108T706 128T769 157T821 188L889 88Q889 87 862 69T787 28T677 -12T543 -31H522V-109Q630
-109 687 -146T744 -268Q744 -313 726 -344T677 -396T606 -426T522 -436Q472 -436 432 -424T364 -398T320 -372T303 -360L348 -285Q374 -304 417 -321T518 -338Q578 -338 604 -320T631 -268Q631 -253 627 -240T608 -218T568 -204T496 -199H420V-16Q346 2 286 41T184
138T119 272T96 440Q96 550 128 637T220 784T362 877T543 909Q600 909 644 905T723 893T781 877T823 860L866 639L735 610Z" />
<glyph unicode="&#xe8;" glyph-name="egrave" horiz-adv-x="1028" d="M541 -31Q442 -31 360 1T219 94T127 242T94 440Q94 550 126 637T218 784T360 877T541 909Q623 909 698 886T828 806T908 651T920 403L260 399Q268 256 339 178T543 100Q615 100 672 115T770
150Q818 172 854 201L928 104Q928 103 903 82T828 36T706 -10T541 -31ZM543 778Q421 778 351 713T262 526L780 528Q778 652 719 715T543 778ZM682 1049L645 983L168 1200L240 1335L682 1049Z" />
<glyph unicode="&#xe9;" glyph-name="eacute" horiz-adv-x="1028" d="M826 1333L898 1198L420 981L384 1047L826 1333ZM541 -31Q442 -31 360 1T219 94T127 242T94 440Q94 550 126 637T218 784T360 877T541 909Q623 909 698 886T828 806T908 651T920 403L260 399Q268
256 339 178T543 100Q615 100 672 115T770 150Q818 172 854 201L928 104Q928 103 903 82T828 36T706 -10T541 -31ZM543 778Q421 778 351 713T262 526L780 528Q778 652 719 715T543 778Z" />
<glyph unicode="&#xea;" glyph-name="ecircumflex" horiz-adv-x="1028" d="M541 -31Q442 -31 360 1T219 94T127 242T94 440Q94 550 126 637T218 784T360 877T541 909Q623 909 698 886T828 806T908 651T920 403L260 399Q268 256 339 178T543 100Q615 100 672 115T770
150Q818 172 854 201L928 104Q928 103 903 82T828 36T706 -10T541 -31ZM543 778Q421 778 351 713T262 526L780 528Q778 652 719 715T543 778ZM537 1337L846 1118L809 1052L537 1188L265 1052L228 1118L537 1337Z" />
<glyph unicode="&#xeb;" glyph-name="edieresis" horiz-adv-x="1028" d="M541 -31Q442 -31 360 1T219 94T127 242T94 440Q94 550 126 637T218 784T360 877T541 909Q623 909 698 886T828 806T908 651T920 403L260 399Q268 256 339 178T543 100Q615 100 672 115T770
150Q818 172 854 201L928 104Q928 103 903 82T828 36T706 -10T541 -31ZM543 778Q421 778 351 713T262 526L780 528Q778 652 719 715T543 778ZM461 1159Q461 1135 452 1115T427 1078T390 1053T346 1044Q322 1044 302 1053T265 1078T240 1114T231 1159Q231 1182 240
1203T265 1239T301 1264T346 1274Q369 1274 390 1265T426 1240T451 1203T461 1159ZM825 1159Q825 1135 816 1115T791 1078T755 1053T711 1044Q687 1044 666 1053T630 1078T605 1114T596 1159Q596 1182 605 1203T629 1239T666 1264T711 1274Q734 1274 754 1265T791
1240T816 1203T825 1159Z" />
<glyph unicode="&#xec;" glyph-name="igrave" horiz-adv-x="648" d="M95 879H425V127H595V0H95V127H265V752H95V879ZM467 1049L430 983L-47 1200L25 1335L467 1049Z" />
<glyph unicode="&#xed;" glyph-name="iacute" horiz-adv-x="647" d="M95 879H425V127H595V0H95V127H265V752H95V879ZM607 1335L679 1200L201 983L165 1049L607 1335Z" />
<glyph unicode="&#xee;" glyph-name="icircumflex" horiz-adv-x="648" d="M95 879H425V127H595V0H95V127H265V752H95V879ZM585 1337L894 1118L857 1052L585 1188L313 1052L276 1118L585 1337Z" />
<glyph unicode="&#xef;" glyph-name="idieresis" horiz-adv-x="648" d="M95 879H425V127H595V0H95V127H265V752H95V879ZM532 1159Q532 1135 523 1115T498 1078T461 1053T417 1044Q393 1044 373 1053T336 1078T311 1114T302 1159Q302 1182 311 1203T336 1239T372
1264T417 1274Q440 1274 461 1265T497 1240T522 1203T532 1159ZM896 1159Q896 1135 887 1115T862 1078T826 1053T782 1044Q758 1044 737 1053T701 1078T676 1114T667 1159Q667 1182 676 1203T700 1239T737 1264T782 1274Q805 1274 825 1265T862 1240T887 1203T896
1159Z" />
<glyph unicode="&#xf0;" glyph-name="eth" horiz-adv-x="1111" d="M348 1065L418 1143Q325 1186 213 1223L240 1335Q325 1311 389 1289T508 1241L602 1346L686 1264L615 1184Q713 1122 778 1053T890 902T962 728T991 537Q991 391 956 284T860 106T717 1T541 -33Q453
-33 373 -4T230 83T131 230T94 436Q94 546 126 633T218 780T360 873T541 905Q559 905 582 904T632 898T687 886T744 866Q699 939 646 992T527 1085L432 983L348 1065ZM543 774Q401 774 330 686T258 436Q258 275 329 187T543 98Q612 98 665 125T755 204T811 331T830
502Q830 564 821 610T797 707Q776 722 747 734T685 756T615 769T543 774Z" />
<glyph unicode="&#xf1;" glyph-name="ntilde" horiz-adv-x="1283" d="M119 909L391 815Q406 825 436 841T506 872T596 898T701 909Q799 909 868 888T982 823T1046 714T1067 563V127H1239V0H815V127H907V530Q907 585 898 630T865 709T798 760T690 778Q634 778 588
767T506 743Q466 728 432 709V127H524V0H100V127H273V715L76 782L119 909ZM686 1257Q703 1245 719 1233T753 1210T788 1193T829 1186Q857 1186 892 1200T973 1249L1040 1169Q1017 1150 991 1130T935 1094T873 1067T807 1056Q778 1056 748 1065T686 1097Q669 1109
653 1121T619 1144T583 1162T542 1169Q514 1169 479 1155T399 1105L332 1185Q355 1204 381 1224T437 1260T498 1286T564 1297Q593 1297 623 1288T686 1257Z" />
<glyph unicode="&#xf2;" glyph-name="ograve" horiz-adv-x="1089" d="M541 -31Q442 -31 360 1T219 93T127 241T94 438Q94 548 126 635T218 783T360 876T541 909Q643 909 727 877T870 784T963 636T996 438Q996 328 963 241T871 94T727 1T541 -31ZM543 778Q401 778
330 689T258 438Q258 277 329 189T543 100Q688 100 760 188T832 438Q832 599 760 688T543 778ZM645 1049L608 983L131 1200L203 1335L645 1049Z" />
<glyph unicode="&#xf3;" glyph-name="oacute" horiz-adv-x="1089" d="M541 -31Q442 -31 360 1T219 93T127 241T94 438Q94 548 126 635T218 783T360 876T541 909Q643 909 727 877T870 784T963 636T996 438Q996 328 963 241T871 94T727 1T541 -31ZM543 778Q401 778
330 689T258 438Q258 277 329 189T543 100Q688 100 760 188T832 438Q832 599 760 688T543 778ZM867 1335L939 1200L461 983L425 1049L867 1335Z" />
<glyph unicode="&#xf4;" glyph-name="ocircumflex" horiz-adv-x="1089" d="M541 -31Q442 -31 360 1T219 93T127 241T94 438Q94 548 126 635T218 783T360 876T541 909Q643 909 727 877T870 784T963 636T996 438Q996 328 963 241T871 94T727 1T541 -31ZM543 778Q401
778 330 689T258 438Q258 277 329 189T543 100Q688 100 760 188T832 438Q832 599 760 688T543 778ZM547 1337L856 1118L819 1052L547 1188L275 1052L238 1118L547 1337Z" />
<glyph unicode="&#xf5;" glyph-name="otilde" horiz-adv-x="1089" d="M541 -31Q442 -31 360 1T219 93T127 241T94 438Q94 548 126 635T218 783T360 876T541 909Q643 909 727 877T870 784T963 636T996 438Q996 328 963 241T871 94T727 1T541 -31ZM543 778Q401 778
330 689T258 438Q258 277 329 189T543 100Q688 100 760 188T832 438Q832 599 760 688T543 778ZM806 1257Q823 1245 839 1233T873 1210T908 1193T949 1186Q977 1186 1012 1200T1093 1249L1160 1169Q1137 1150 1111 1130T1055 1094T993 1067T927 1056Q898 1056 868
1065T806 1097Q789 1109 773 1121T739 1144T703 1162T662 1169Q634 1169 599 1155T519 1105L452 1185Q475 1204 501 1224T557 1260T618 1286T684 1297Q713 1297 743 1288T806 1257Z" />
<glyph unicode="&#xf6;" glyph-name="odieresis" horiz-adv-x="1089" d="M541 -31Q442 -31 360 1T219 93T127 241T94 438Q94 548 126 635T218 783T360 876T541 909Q643 909 727 877T870 784T963 636T996 438Q996 328 963 241T871 94T727 1T541 -31ZM543 778Q401
778 330 689T258 438Q258 277 329 189T543 100Q688 100 760 188T832 438Q832 599 760 688T543 778ZM478 1159Q478 1135 469 1115T444 1078T407 1053T363 1044Q339 1044 319 1053T282 1078T257 1114T248 1159Q248 1182 257 1203T282 1239T318 1264T363 1274Q386
1274 407 1265T443 1240T468 1203T478 1159ZM842 1159Q842 1135 833 1115T808 1078T772 1053T728 1044Q704 1044 683 1053T647 1078T622 1114T613 1159Q613 1182 622 1203T646 1239T683 1264T728 1274Q751 1274 771 1265T808 1240T833 1203T842 1159Z" />
<glyph unicode="&#xf7;" glyph-name="divide" horiz-adv-x="988" d="M113 682H875V541H113V682ZM633 281Q633 255 623 232T595 191T555 164T506 154Q480 154 457 164T416 191T389 231T379 281Q379 306 389 329T416 369T456 397T506 408Q531 408 554 398T595 370T622
329T633 281ZM633 934Q633 908 623 885T595 844T555 817T506 807Q480 807 457 817T416 844T389 884T379 934Q379 959 389 982T416 1022T456 1050T506 1061Q531 1061 554 1051T595 1023T622 982T633 934Z" />
<glyph unicode="&#xf8;" glyph-name="oslash" horiz-adv-x="1089" d="M541 -31Q477 -31 426 -18L375 -147H244L314 23Q209 77 152 182T94 438Q94 548 126 635T218 783T360 876T541 909Q610 909 670 893L721 1020H850L780 850Q882 793 939 690T996 438Q996 328
963 241T871 94T727 1T541 -31ZM543 778Q401 778 330 689T258 438Q258 338 284 266T367 152L619 770Q602 775 583 776T543 778ZM832 438Q832 535 807 606T727 719L477 106Q508 100 543 100Q688 100 760 188T832 438Z" />
<glyph unicode="&#xf9;" glyph-name="ugrave" horiz-adv-x="1239" d="M676 879H1008V160L1201 94L1160 -37L881 59Q863 48 833 33T764 4T678 -21T580 -31Q482 -31 412 -9T298 56T234 164T213 315V752H41V879H373V348Q373 294 382 249T415 170T482 119T590 100Q646
100 692 110T774 135Q814 150 848 170V752H676V879ZM855 1051L818 985L341 1202L413 1337L855 1051Z" />
<glyph unicode="&#xfa;" glyph-name="uacute" horiz-adv-x="1239" d="M676 879H1008V160L1201 94L1160 -37L881 59Q863 48 833 33T764 4T678 -21T580 -31Q482 -31 412 -9T298 56T234 164T213 315V752H41V879H373V348Q373 294 382 249T415 170T482 119T590 100Q646
100 692 110T774 135Q814 150 848 170V752H676V879ZM969 1335L1041 1200L563 983L527 1049L969 1335Z" />
<glyph unicode="&#xfb;" glyph-name="ucircumflex" horiz-adv-x="1239" d="M676 879H1008V160L1201 94L1160 -37L881 59Q863 48 833 33T764 4T678 -21T580 -31Q482 -31 412 -9T298 56T234 164T213 315V752H41V879H373V348Q373 294 382 249T415 170T482 119T590
100Q646 100 692 110T774 135Q814 150 848 170V752H676V879ZM596 1337L905 1118L868 1052L596 1188L324 1052L287 1118L596 1337Z" />
<glyph unicode="&#xfc;" glyph-name="udieresis" horiz-adv-x="1239" d="M676 879H1008V160L1201 94L1160 -37L881 59Q863 48 833 33T764 4T678 -21T580 -31Q482 -31 412 -9T298 56T234 164T213 315V752H41V879H373V348Q373 294 382 249T415 170T482 119T590 100Q646
100 692 110T774 135Q814 150 848 170V752H676V879ZM533 1159Q533 1135 524 1115T499 1078T462 1053T418 1044Q394 1044 374 1053T337 1078T312 1114T303 1159Q303 1182 312 1203T337 1239T373 1264T418 1274Q441 1274 462 1265T498 1240T523 1203T533 1159ZM897
1159Q897 1135 888 1115T863 1078T827 1053T783 1044Q759 1044 738 1053T702 1078T677 1114T668 1159Q668 1182 677 1203T701 1239T738 1264T783 1274Q806 1274 826 1265T863 1240T888 1203T897 1159Z" />
<glyph unicode="&#xfd;" glyph-name="yacute" horiz-adv-x="1188" d="M30 879H456V752H340L616 59L862 752H749V879H1159V752H1011L671 -203Q624 -333 548 -395T356 -457Q334 -457 311 -454T268 -448T237 -441T225 -436L251 -313Q273 -319 293 -323Q310 -327 329
-329T364 -332Q381 -332 402 -327T446 -305T489 -260T528 -182L544 -135L176 752H30V879ZM954 1335L1026 1200L548 983L512 1049L954 1335Z" />
<glyph unicode="&#xfe;" glyph-name="thorn" horiz-adv-x="1086" d="M491 -426H-12V-299H160V1141L-33 1204L8 1335L319 1229V844Q367 870 426 889T555 909Q652 909 732 880T871 795T961 656T993 465Q993 355 961 264T869 108T728 6T547 -31Q478 -31 423 -21T319
4V-299H491V-426ZM545 100Q615 100 668 127T757 202T811 317T829 465Q829 778 553 778Q509 778 473 771T408 753T357 728T319 702V152Q350 133 404 117T545 100Z" />
<glyph unicode="&#xff;" glyph-name="ydieresis" horiz-adv-x="1188" d="M30 879H456V752H340L616 59L862 752H749V879H1159V752H1011L671 -203Q624 -333 548 -395T356 -457Q334 -457 311 -454T268 -448T237 -441T225 -436L251 -313Q273 -319 293 -323Q310 -327
329 -329T364 -332Q381 -332 402 -327T446 -305T489 -260T528 -182L544 -135L176 752H30V879ZM534 1159Q534 1135 525 1115T500 1078T463 1053T419 1044Q395 1044 375 1053T338 1078T313 1114T304 1159Q304 1182 313 1203T338 1239T374 1264T419 1274Q442 1274
463 1265T499 1240T524 1203T534 1159ZM898 1159Q898 1135 889 1115T864 1078T828 1053T784 1044Q760 1044 739 1053T703 1078T678 1114T669 1159Q669 1182 678 1203T702 1239T739 1264T784 1274Q807 1274 827 1265T864 1240T889 1203T898 1159Z" />
<glyph unicode="&#x2013;" glyph-name="endash" horiz-adv-x="1216" d="M138 545H1078V403H138V545Z" />
<glyph unicode="&#x2014;" glyph-name="emdash" horiz-adv-x="1662" d="M135 543H1528V401H135V543Z" />
<glyph unicode="&#x2018;" glyph-name="quoteleft" horiz-adv-x="503" d="M113 907Q113 937 120 967T140 1025T169 1081T202 1132Q242 1187 293 1239L365 1178Q347 1151 330 1123Q316 1099 300 1070T271 1014Q289 1012 308 1006T343 987Q363 970 374 947T386 895Q386
866 376 843T347 803T305 777T252 768Q225 768 200 779T155 809T125 853T113 907Z" />
<glyph unicode="&#x2019;" glyph-name="quoteright" horiz-adv-x="489" d="M393 1100Q393 1070 386 1040T366 982T337 926T304 875Q264 820 213 768L141 829Q158 856 176 884Q190 908 206 936T235 993Q217 995 198 1001T164 1020Q144 1037 133 1060T121 1112Q121
1140 131 1163T159 1204T201 1230T254 1239Q281 1239 306 1228T351 1198T381 1154T393 1100Z" />
<glyph unicode="&#x201a;" glyph-name="quotesinglbase" horiz-adv-x="527" d="M401 84Q401 54 394 24T374 -34T345 -90T301 -156T221 -248L149 -186Q166 -160 184 -132Q198 -108 214 -80T243 -23Q225 -21 206 -15T170 6T141 44T129 96Q129 124 139 147T167 188T209
214T262 223Q289 223 314 212T359 182T389 138T401 84Z" />
<glyph unicode="&#x201c;" glyph-name="quotedblleft" horiz-adv-x="882" d="M492 907Q492 937 499 967T519 1025T548 1081T581 1132Q621 1187 672 1239L744 1178Q726 1151 709 1123Q695 1099 679 1070T650 1014Q668 1012 687 1006T722 987Q742 970 753 947T765
895Q765 866 755 843T726 803T684 777T631 768Q604 768 579 779T534 809T504 853T492 907ZM113 907Q113 937 120 967T140 1025T169 1081T202 1132Q242 1187 293 1239L365 1178Q347 1151 330 1123Q316 1099 300 1070T271 1014Q289 1012 308 1006T343 987Q363 970
374 947T386 895Q386 866 376 843T347 803T305 777T252 768Q225 768 200 779T155 809T125 853T113 907Z" />
<glyph unicode="&#x201d;" glyph-name="quotedblright" horiz-adv-x="868" d="M772 1100Q772 1070 765 1040T745 982T716 926T683 875Q643 820 592 768L520 829Q537 856 555 884Q569 908 585 936T614 993Q596 995 577 1001T543 1020Q523 1037 512 1060T500 1112Q500
1140 510 1163T538 1204T580 1230T633 1239Q660 1239 685 1228T730 1198T760 1154T772 1100ZM393 1100Q393 1070 386 1040T366 982T337 926T304 875Q264 820 213 768L141 829Q158 856 176 884Q190 908 206 936T235 993Q217 995 198 1001T164 1020Q144 1037 133
1060T121 1112Q121 1140 131 1163T159 1204T201 1230T254 1239Q281 1239 306 1228T351 1198T381 1154T393 1100Z" />
<glyph unicode="&#x201e;" glyph-name="quotedblbase" horiz-adv-x="906" d="M780 84Q780 54 773 24T753 -34T724 -90T680 -156T600 -248L528 -186Q545 -160 563 -132Q577 -108 593 -80T622 -23Q604 -21 585 -15T549 6T520 44T508 96Q508 124 518 147T546 188T588
214T641 223Q668 223 693 212T738 182T768 138T780 84ZM401 84Q401 54 394 24T374 -34T345 -90T301 -156T221 -248L149 -186Q166 -160 184 -132Q198 -108 214 -80T243 -23Q225 -21 206 -15T170 6T141 44T129 96Q129 124 139 147T167 188T209 214T262 223Q289 223
314 212T359 182T389 138T401 84Z" />
<glyph unicode="&#x2022;" glyph-name="bullet" horiz-adv-x="698" d="M112 651Q112 700 131 743T182 819T257 870T350 889Q399 889 442 870T517 819T568 744T587 651Q587 602 569 559T518 484T442 433T350 414Q301 414 258 432T182 483T131 559T112 651Z" />
<glyph unicode="&#x2039;" glyph-name="guilsinglleft" horiz-adv-x="617" d="M507 76L405 4L79 444L405 885L507 813L245 444L507 76Z" />
<glyph unicode="&#x203a;" glyph-name="guilsinglright" horiz-adv-x="617" d="M372 444L110 813L212 885L538 444L212 4L110 76L372 444Z" />
</font>
</defs>
</svg>
